<svg id="Layer_1" data-name="Layer 1" xmlns="http://www.w3.org/2000/svg" viewBox="0 0 940 600">
  <defs>
    <style>
      .cls-1{fill:#ffd331;}.cls-2{fill:#96c641;}.cls-3{fill:#67d3d5;}.cls-4{fill:#ffcbe1;}.cls-5{fill:#f17;}.cls-6{fill:#517;}.cls-7{fill:#dacbe1;}
    </style>
  </defs>
  <title>
    Artboard 1 copy
  </title>
  <path class="cls-1" d="M497.24 151.99h13.09v13.09h-13.09zM507.49 173.39h13.09v13.09h-13.09zM494.61 209.36h15.48v6.98h-15.48zM457.99 187.1h13.09v13.09h-13.09z"/>
  <path class="cls-1" d="M528.87 135.19h-38.39a1.92 1.92 0 0 0-1.92 1.92v42.24l-18.31-18.15a1.92 1.92 0 0 0-2.69 0l-9.65 9.31v-9.83a1.92 1.92 0 1 0-3.85 0v12.22a1.91 1.91 0 0 0 .3 1l-9.05 8.74a1.92 1.92 0 0 0-.59 1.38v32.1a1.92 1.92 0 0 0 3.85 0v-31.25l20.3-19.6 19.6 19.42.08.07v48.8a1.92 1.92 0 0 0 3.85 0V139h34.54v82.08a1.92 1.92 0 0 0 3.85 0v-84a1.92 1.92 0 0 0-1.92-1.89z"/>
  <path class="cls-2" d="M745.54 473.39c-2-2.42-5.07-3.44-9.08-3-.71-3-2.56-8.72-6.68-10.81a7.61 7.61 0 0 0-6.1-.29c-1.38-1.86-4.13-4.81-7.71-4.89-2.65-.05-5.06 1.43-7.17 4.43-2.3.44-8.32 2-11.46 7-2.18 3.43-2.51 7.69-1 12.66-1.3 2.62-5.16 11.37-1.9 17.13 1.56 2.75 4.38 4.38 8.4 4.84a9.39 9.39 0 0 0 9.74 7.53 22.82 22.82 0 0 0 6.67 5v23.82a2.3 2.3 0 0 0 .06.5 17.55 17.55 0 0 1-2 .14c-5.82 0-13.63-2.27-23.53-5.15-3.39-1-6.89-2-10.68-3a29.47 29.47 0 0 0-8.41-1v-13.04a26.93 26.93 0 0 0 9.6 7.62 40.11 40.11 0 0 0 11.11 3.58h.27a1.92 1.92 0 0 0 .26-3.82c-.19 0-18.07-2.67-21.24-16.08V498a25.15 25.15 0 0 0 14.7 10.09 1.92 1.92 0 0 0 .72-3.77c-.55-.11-13.52-2.81-15.3-17.05a1.91 1.91 0 0 0-.13-.47v-4.54A18.84 18.84 0 0 0 685.3 491a2 2 0 0 0 .47.06 1.92 1.92 0 0 0 .47-3.78c-.1 0-9.94-2.66-11.3-17a1.89 1.89 0 0 0-.28-.81V469c3.53 5.36 7.93 6.72 8.22 6.8a1.89 1.89 0 0 0 .53.08 1.92 1.92 0 0 0 .55-3.76c-.32-.1-7.26-2.39-9.3-13.77v-3.12a2.3 2.3 0 1 0-4.6 0v3.12c-2 11.36-8.95 13.66-9.3 13.77a1.92 1.92 0 0 0 1.08 3.68c.29-.08 4.69-1.44 8.22-6.8v.4a1.89 1.89 0 0 0-.28.81c-1.34 14.21-10.88 16.91-11.31 17a1.92 1.92 0 0 0 .48 3.78 2 2 0 0 0 .47-.06 18.84 18.84 0 0 0 10.64-8.75v4.54a1.91 1.91 0 0 0-.13.47c-1.78 14.25-14.75 16.95-15.3 17.05a1.92 1.92 0 0 0 .72 3.77 25.15 25.15 0 0 0 14.7-10.01v8.61c-3.16 13.37-21 16-21.24 16.08a1.92 1.92 0 0 0 .26 3.82h.27a40.11 40.11 0 0 0 11.11-3.58 26.93 26.93 0 0 0 9.6-7.62v13.29a43.38 43.38 0 0 0-17.74 7.4 1.92 1.92 0 0 0 2.32 3.05c.13-.1 13.43-10 27.42-6.2 3.76 1 7.25 2 10.63 3 10.19 3 18.24 5.31 24.6 5.31 8.41 0 25.72-7.23 26.45-7.54a1.92 1.92 0 0 0-1.49-3.54 147.36 147.36 0 0 1-18.39 6.25V514h.27a9.35 9.35 0 0 0 7.06-3.61c2.68-.44 10.72-2.13 13.42-6.91a7.09 7.09 0 0 0 .44-6 61.11 61.11 0 0 0 2.37-8.69c1.35-7.12.72-12.31-1.87-15.4zm-4.35 23.44a1.92 1.92 0 0 0 0 1.46 3.41 3.41 0 0 1 0 3.31c-1.8 3.19-9 4.8-11.35 5.11a1.92 1.92 0 0 0-1.28.74 5.9 5.9 0 0 1-4.58 2.72h-.2v-7l12.22-9.48a1.53 1.53 0 0 0-1.89-2.42l-10.3 8v-22.5a2.3 2.3 0 0 0-4.6 0v7l-10-9.5a1.53 1.53 0 1 0-2.11 2.22L719.24 488v20.58a20.52 20.52 0 0 1-4.36-3.77 1.92 1.92 0 0 0-1.47-.69h-.1a6.68 6.68 0 0 1-5-1.43 6.54 6.54 0 0 1-1.87-4.1 1.92 1.92 0 0 0-1.84-1.86c-3.45-.13-5.74-1.15-6.79-3-2.27-4 .9-11.58 2.31-14.15a1.92 1.92 0 0 0 .14-1.54c-1.4-4.15-1.28-7.56.35-10.15 2.86-4.53 9.52-5.38 9.58-5.38a1.92 1.92 0 0 0 1.4-.87c1.45-2.28 2.9-3.45 4.33-3.39 2.37 0 4.78 3.28 5.44 4.4a1.92 1.92 0 0 0 2.55.74c1.64-.86 3-1 4.18-.39 3.11 1.57 4.66 7.64 5 9.85a1.92 1.92 0 0 0 2.26 1.6c3.48-.67 5.93-.18 7.3 1.45 3.7 4.43.21 16.61-1.46 20.93z"/>
  <path class="cls-3" d="M307.69 402.47c-5.34 6.44-10.64 9.51-15.75 9.1-7.72-.61-12.78-9-12.83-9.08a1.78 1.78 0 0 0-2.89-.25c-5 5.9-10 8.73-15 8.4-7.82-.52-13.17-8.74-13.22-8.82a1.78 1.78 0 0 0-2.87-.18c-6 7.27-11.75 10.69-17.07 10.15-7.18-.72-11.47-8.58-11.51-8.66a1.78 1.78 0 0 0-2.8-.46 30.65 30.65 0 0 1-16.11 7.55 1.78 1.78 0 0 0 .35 3.54 34.07 34.07 0 0 0 16.6-7.08c2 2.85 6.44 8 13.09 8.65a14.47 14.47 0 0 0 1.47.08c5.64 0 11.43-3.28 17.24-9.78 2.35 2.89 7.51 8.09 14.57 8.56 5.61.38 11.13-2.29 16.42-7.93 2.26 3 7.23 8.29 14.24 8.85 6.34.51 12.66-3 18.79-10.37a1.78 1.78 0 0 0-2.74-2.27zM208.09 390.64c5.74 0 11.51-3.24 17.17-9.64.48.52 1 1.1 1.48 1.69 3 3.52 6.81 7.89 12.51 7.9 4.58 0 9.48-2.87 14.93-8.78 2.65 3.07 7.76 8.64 15 8.44 5.45-.15 11-3.55 16.56-10.12 1.89 3.19 5.75 8.39 11.34 9.39 4.4.79 8.86-1.14 13.25-5.72a1.78 1.78 0 1 0-2.57-2.46c-3.52 3.67-6.9 5.24-10.05 4.68-6.14-1.09-10-9.74-10-9.82a1.78 1.78 0 0 0-3-.37c-5.44 7.08-10.67 10.74-15.56 10.88-5.89.16-10.24-4.9-12.58-7.62-.4-.46-.74-.86-1-1.17a1.74 1.74 0 0 0-1.33-.56 1.78 1.78 0 0 0-1.31.61c-5.21 6-9.78 9.07-13.59 9.07-4.08 0-7.13-3.54-9.82-6.66a34.67 34.67 0 0 0-3.11-3.32 1.78 1.78 0 0 0-2.55.21c-5.51 6.7-10.91 10-16.11 9.82-6.41-.23-10.47-5.88-10.51-5.94a1.78 1.78 0 0 0-2.92 2c.2.29 5.07 7.13 13.26 7.46zM297.34 427.37c-5.13 4.89-10.55 7.27-16.1 7.06-9.09-.34-15.69-7.53-15.75-7.6a1.78 1.78 0 0 0-2.71.07c-5.08 6.26-10.13 9.44-15 9.47h-.05c-6.63 0-11.44-5.81-13.5-8.29-.36-.44-.62-.75-.85-1a1.78 1.78 0 0 0-2.68.17c-7.89 10.35-18 7.1-18.45 6.95a1.78 1.78 0 0 0-1.16 3.37 20.52 20.52 0 0 0 21-6.47c2.54 3 8 8.81 15.6 8.81h.07c5.55 0 11.09-3.15 16.48-9.29 2.66 2.41 8.79 7 16.79 7.36 6.56.25 12.86-2.45 18.72-8a1.78 1.78 0 0 0-2.46-2.58zM203.07 363.48c.13.05 12.14 4.92 21.69-8 2.63 3.79 8.21 10.94 16 10.94h.06c5.73 0 11.42-3.91 16.94-11.56 2.8 3.07 9.12 8.83 17.38 9.14 6.73.26 13.17-3.14 19.14-10.11a1.78 1.78 0 1 0-2.7-2.32c-5.22 6.09-10.7 9.07-16.28 8.87-9.33-.34-16.17-9.48-16.24-9.57a1.78 1.78 0 0 0-2.92.07c-5.24 7.88-10.4 11.89-15.34 11.92-6.72 0-11.67-7.31-13.79-10.43-.37-.54-.63-.93-.85-1.21a1.78 1.78 0 0 0-2.9.18c-8.09 13-18.34 9-18.79 8.78a1.78 1.78 0 0 0-1.38 3.28z"/>
  <path class="cls-4" d="M67.24 119.9a37.62 37.62 0 1 1 37.62-37.62 37.66 37.66 0 0 1-37.62 37.62zm0-64.36A26.74 26.74 0 1 0 94 82.28a26.77 26.77 0 0 0-26.76-26.74z"/>
  <path class="cls-4" d="M104.86 119.9a37.62 37.62 0 1 1 37.62-37.62 37.66 37.66 0 0 1-37.62 37.62zm0-64.36a26.74 26.74 0 1 0 26.74 26.74 26.77 26.77 0 0 0-26.74-26.74z"/>
  <path class="cls-3" d="M222 345.09a4.5 4.5 0 0 1-3.9-2.25L146 218.06a4.5 4.5 0 0 1 7.79-4.51l72.18 124.78a4.5 4.5 0 0 1-3.89 6.75z"/>
  <path class="cls-4" d="M87.45 116.89l7.792-4.508 5.007 8.656-7.79 4.507zM138.19 204.6L128 187l7.79-4.51L146 200.1zm-15.24-26.35l-10.16-17.57 7.79-4.51 10.16 17.57zM107.7 151.9l-10.16-17.57 7.79-4.51 10.16 17.57zM143.277 213.377l7.79-4.507 5.007 8.656-7.79 4.507z"/>
  <path class="cls-2" d="M662.56 450.94a4.5 4.5 0 0 1-3.79-2.07l-140.5-219.13a4.5 4.5 0 1 1 7.58-4.86L666.35 444a4.5 4.5 0 0 1-3.78 6.93z"/>
  <path class="cls-1" d="M297.85 357.48a4.5 4.5 0 0 1-3-7.88l151.67-133.67a4.5 4.5 0 0 1 6 6.75l-151.7 133.67a4.48 4.48 0 0 1-2.97 1.13z"/>
  <path class="cls-1" d="M491.07 240.33a65.09 65.09 0 1 1 65.09-65.09 65.17 65.17 0 0 1-65.09 65.09zm0-121.19a56.09 56.09 0 1 0 56.09 56.09 56.16 56.16 0 0 0-56.09-56.09z"/>
  <path class="cls-3" d="M252.39 458.14A65.09 65.09 0 1 1 317.48 393a65.17 65.17 0 0 1-65.09 65.14zm0-121.19A56.09 56.09 0 1 0 308.48 393a56.16 56.16 0 0 0-56.09-56z"/>
  <path class="cls-2" d="M697.58 561a65.09 65.09 0 1 1 65.09-65.09A65.17 65.17 0 0 1 697.58 561zm0-121.19a56.09 56.09 0 1 0 56.09 56.09 56.16 56.16 0 0 0-56.09-56.1z"/>
  <path class="cls-5" d="M343 386.93v30.22h-6.81v-24.44h-6v-5.78zM360.85 414.09a3.32 3.32 0 1 1-6.64 0 3.32 3.32 0 1 1 6.64 0z"/>
  <path class="cls-6" d="M401 394.52a6.61 6.61 0 0 1-5.22 6.64 7.4 7.4 0 0 1 6.29 7.63c0 5.17-4.35 8.36-11.38 8.36h-14.37V387h13.88c6.64 0 10.8 2.86 10.8 7.52zm-7 1.25c0-2.07-1.59-3.23-4.14-3.23h-6.72v6.6h6.72c2.54-.01 4.14-1.26 4.14-3.37zm1 12.16c0-2.2-1.94-3.54-5.17-3.54h-6.72v7.2h6.72c3.26 0 5.17-1.34 5.17-3.67zM421.2 393.7v6.25c-4.74-.43-7.67 2.11-7.67 6v11.17h-6.64V394h6.64v4.18a8.44 8.44 0 0 1 7.67-4.48zM431.72 387.32a3.58 3.58 0 1 1-3.58-3.71 3.5 3.5 0 0 1 3.58 3.71zm-.26 6.64v23.19h-6.64V394zM459.56 394v21c0 6.59-5 10.78-12.37 10.78a18 18 0 0 1-10.09-3.06l2.46-4.66a12.26 12.26 0 0 0 7.2 2.33c3.79 0 6.21-2 6.21-5.17v-2.63a8.19 8.19 0 0 1-7 3.36c-6 0-10.13-4.48-10.13-11.21 0-6.55 4.05-11 10-11a8.35 8.35 0 0 1 7.16 3.36V394zM453 404.91c0-3.58-2.2-6-5.43-6s-5.43 2.5-5.47 6 2.2 6 5.47 6 5.43-2.47 5.43-6zM489.05 402.58v14.57h-6.64v-12.63c0-2.93-1.72-4.74-4.57-4.74-3.32 0-5.34 2.54-5.34 5.95v11.42h-6.64v-32h6.64v12.89c1.64-2.89 4.4-4.31 8-4.35 5.23.01 8.55 3.46 8.55 8.89zM509.1 415.85a12.35 12.35 0 0 1-6 1.59c-4.14 0-7.28-2.37-7.28-7.16v-10.72h-3.23V395h3.23v-6.38h6.59V395h6.29v4.61h-6.29v9.57c0 1.94.82 2.72 2.24 2.67a7.72 7.72 0 0 0 3.1-.86zM535.82 405.55c0 7.07-5 11.85-12.42 11.85s-12.4-4.78-12.4-11.85 5-11.81 12.46-11.81 12.36 4.7 12.36 11.81zm-18.19.09c0 3.79 2.33 6.38 5.78 6.38s5.78-2.59 5.78-6.38-2.37-6.38-5.78-6.38-5.78 2.58-5.78 6.38zM563.37 402.58v14.57h-6.64v-12.63c0-2.93-1.72-4.74-4.57-4.74-3.32 0-5.3 2.54-5.3 5.95v11.42h-6.64V394h6.64v4c1.64-2.89 4.4-4.27 8-4.31 5.19.01 8.51 3.46 8.51 8.89zM382.3 359.48v15.42h-4.58v-15.42zM396.63 358.58v16.33h-4.44v-1.36a4.1 4.1 0 0 1-3.28 1.52c-3.34 0-5.54-2.44-5.54-6.2s2.16-6.07 5.44-6.07a4.24 4.24 0 0 1 3.39 1.54v-5.74zM392.18 369c0-1.58-.86-2.66-2.16-2.66s-2.18 1.08-2.18 2.66.86 2.68 2.18 2.68 2.16-1.11 2.16-2.68zM411.15 368.92c0 3.7-2.62 6.14-6.65 6.14s-6.67-2.44-6.67-6.14 2.64-6.14 6.67-6.14 6.65 2.42 6.65 6.14zm-5.63-10l-2 2.86h-3.19l1.89-4zm-3.19 10c0 1.61.86 2.66 2.18 2.66s2.16-1.06 2.16-2.66-.86-2.66-2.16-2.66-2.19 1.12-2.19 2.74zm7.79-10l-2 2.86h-3.19l1.89-4zM425.62 369c0 3.67-2.13 6.07-5.44 6.07a4.24 4.24 0 0 1-3.39-1.54v5.66h-4.44v-16.25h4.44v1.39a4.08 4.08 0 0 1 3.28-1.54c3.35-.01 5.55 2.46 5.55 6.21zm-4.49-.11c0-1.58-.86-2.66-2.18-2.66s-2.16 1.08-2.16 2.66.88 2.66 2.16 2.66 2.18-1.09 2.18-2.67zM439.11 368.92c0 3.7-2.62 6.14-6.65 6.14s-6.67-2.44-6.67-6.14 2.64-6.14 6.67-6.14 6.65 2.42 6.65 6.14zm-8.82 0c0 1.61.86 2.66 2.18 2.66s2.16-1.06 2.16-2.66-.86-2.66-2.16-2.66-2.18 1.12-2.18 2.74zM452.77 367.32v7.59h-4.44v-6.32a1.72 1.72 0 0 0-1.72-1.94 2.06 2.06 0 0 0-2 2.33v5.92h-4.44v-12h4.44v1.85a4.27 4.27 0 0 1 3.81-2 4.19 4.19 0 0 1 4.35 4.57zM462.65 374.34a7.05 7.05 0 0 1-3.32.77c-2.55 0-4.27-1.45-4.27-3.94v-4.77h-1.65v-2.84h1.65v-3.32h4.42v3.32h2.95v2.84h-2.95v4.09c0 .77.4 1.14 1 1.14a4.44 4.44 0 0 0 1.36-.35zM480.51 367.32v7.59h-4.44v-6.32a1.71 1.71 0 0 0-1.72-1.94 2.06 2.06 0 0 0-2 2.33v5.92h-4.44v-16.32h4.44v6.2a4.27 4.27 0 0 1 3.81-2c2.61-.02 4.35 1.76 4.35 4.54zM493.21 367.14v7.77h-4.36v-1.32a4.15 4.15 0 0 1-3.5 1.52c-2.55 0-4-1.52-4-3.76s1.61-3.59 4.62-3.63h2.93c0-1-.7-1.58-2.07-1.58a9.76 9.76 0 0 0-3.61.86l-1.1-2.95a15.45 15.45 0 0 1 5.77-1.23c3.31-.06 5.32 1.55 5.32 4.32zm-4.36 3.86v-1.08h-2c-.88 0-1.34.37-1.34 1.12s.48 1.19 1.34 1.19a2.17 2.17 0 0 0 2-1.23zM515.29 367.32v7.59h-4.45v-6.32c0-1.19-.66-1.94-1.65-1.94-1.14 0-1.87 1-1.87 2.33v5.92h-4.44v-6.32c0-1.19-.66-1.94-1.65-1.94-1.17 0-1.89 1-1.89 2.33v5.92h-4.44v-12h4.44v1.83a4.17 4.17 0 0 1 3.72-2 4 4 0 0 1 3.94 2.6 4.23 4.23 0 0 1 4-2.6c2.58.04 4.29 1.82 4.29 4.6zM528 367.14v7.77h-4.36v-1.32a4.15 4.15 0 0 1-3.5 1.52c-2.55 0-4-1.52-4-3.76s1.61-3.59 4.62-3.63h2.93c0-1-.7-1.58-2.07-1.58a9.76 9.76 0 0 0-3.61.86l-1.1-2.95a15.45 15.45 0 0 1 5.76-1.23c3.33-.06 5.33 1.55 5.33 4.32zm-4.37 3.86v-1.08h-2c-.88 0-1.34.37-1.34 1.12s.48 1.19 1.34 1.19a2.17 2.17 0 0 0 2-1.23zM537.89 362.76v4c-2.29-.29-3.76.68-3.76 2.42v5.72h-4.44v-12h4.44v1.89a4.29 4.29 0 0 1 3.76-2.03zM551.17 368.92c0 3.7-2.62 6.14-6.64 6.14s-6.67-2.44-6.67-6.14 2.64-6.14 6.67-6.14 6.64 2.42 6.64 6.14zm-8.82 0c0 1.61.86 2.66 2.18 2.66s2.16-1.06 2.16-2.66-.86-2.66-2.16-2.66-2.18 1.12-2.18 2.74zM556.78 365.73c-.55 0-.9.2-.9.57 0 1.34 6.25.75 6.25 4.84 0 2.46-2.13 4-5.26 4a9.58 9.58 0 0 1-5.63-1.69l1.36-2.79a8.23 8.23 0 0 0 4.33 1.47c.59 0 1-.18 1-.55 0-1.36-6.12-.7-6.12-4.8 0-2.51 2.09-4 5.1-4a10.53 10.53 0 0 1 5.26 1.45L560.7 367a9.44 9.44 0 0 0-3.92-1.27zM574.38 367.14v7.77H570v-1.32a4.15 4.15 0 0 1-3.5 1.52c-2.55 0-4-1.52-4-3.76s1.61-3.59 4.62-3.63H570c0-1-.7-1.58-2.07-1.58a9.76 9.76 0 0 0-3.61.86l-1.1-2.95a15.45 15.45 0 0 1 5.76-1.23c3.4-.06 5.4 1.55 5.4 4.32zM570 371v-1.08h-2c-.88 0-1.34.37-1.34 1.12s.48 1.19 1.34 1.19a2.17 2.17 0 0 0 2-1.23zM588.64 367.32v7.59h-4.44v-6.32a1.72 1.72 0 0 0-1.72-1.94 2.06 2.06 0 0 0-2 2.33v5.92h-4.44v-12h4.44v1.85a4.27 4.27 0 0 1 3.81-2c2.59.01 4.35 1.79 4.35 4.57zM593.88 373a2.08 2.08 0 1 1-4.16 0 2.08 2.08 0 0 1 4.16 0zM598.83 373a2.08 2.08 0 1 1-4.16 0 2.08 2.08 0 0 1 4.16 0zM603.77 373a2.08 2.08 0 1 1-4.16 0 2.08 2.08 0 0 1 4.16 0zM386.51 432.25v8.45c0 2.6-2.06 4.25-5.08 4.25a8 8 0 0 1-4.27-1.21l1.14-2.31a5.33 5.33 0 0 0 2.84.85c1.24 0 2-.58 2-1.48v-.94a3.09 3.09 0 0 1-2.48 1.11c-2.24 0-3.88-1.77-3.88-4.47s1.58-4.37 3.81-4.37a3.19 3.19 0 0 1 2.55 1.12v-1zm-3.4 4.35c0-1.17-.63-1.94-1.58-1.94s-1.56.78-1.56 1.94.63 1.9 1.56 1.9 1.58-.76 1.58-1.89zM394.87 432.12v3.09c-1.77-.22-2.91.53-2.91 1.87v4.42h-3.43v-9.25H392v1.46a3.31 3.31 0 0 1 2.87-1.59zM399.58 429.62a1.77 1.77 0 1 1-1.77-1.77 1.7 1.7 0 0 1 1.77 1.77zm-.07 2.63v9.25h-3.43v-9.25zM405.11 428.89v12.61h-3.43v-12.61zM410.8 428.89v12.61h-3.43v-12.61zM422 437.71h-6.22a1.8 1.8 0 0 0 1.8 1.38 3 3 0 0 0 2-.88l1.78 1.75a5.33 5.33 0 0 1-4.11 1.67c-3.09 0-5-1.87-5-4.71a4.55 4.55 0 0 1 4.88-4.78c3.26-.01 5.03 2.17 4.87 5.57zm-4.78-3.25c-.82 0-1.34.63-1.51 1.56h2.91a1.41 1.41 0 0 0-1.44-1.56zM422.77 441.5v-2l4.15-4.64h-4v-2.58h8.29v2l-4.15 4.64h4.32v2.57zM441.81 437.71h-6.22a1.8 1.8 0 0 0 1.8 1.38 3 3 0 0 0 2-.88l1.78 1.75a5.33 5.33 0 0 1-4.11 1.67c-3.09 0-5-1.87-5-4.71a4.55 4.55 0 0 1 4.88-4.78c3.31-.01 5.06 2.17 4.87 5.57zm-4-6.32h-2.52l1.82-3.06 3 1zm-.77 3.08c-.82 0-1.34.63-1.51 1.56h2.91a1.41 1.41 0 0 0-1.44-1.57zM446.67 434.41c-.42 0-.7.15-.7.44 0 1 4.83.58 4.83 3.74 0 1.9-1.65 3.06-4.06 3.06a7.4 7.4 0 0 1-4.35-1.31l1.05-2.16a6.36 6.36 0 0 0 3.35 1.14c.46 0 .76-.14.76-.42 0-1.05-4.73-.54-4.73-3.71 0-1.94 1.62-3.09 3.94-3.09a8.13 8.13 0 0 1 4.06 1.12l-1.14 2.16a7.3 7.3 0 0 0-3.01-.97zM464.5 435.5v6h-3.37v-1a3.21 3.21 0 0 1-2.7 1.17 2.81 2.81 0 0 1-3.13-2.91c0-1.78 1.24-2.77 3.57-2.8h2.26c0-.77-.54-1.22-1.6-1.22a7.54 7.54 0 0 0-2.79.66l-.85-2.28a11.92 11.92 0 0 1 4.45-1c2.66 0 4.16 1.24 4.16 3.38zm-3.37 3v-.83h-1.56c-.68 0-1 .29-1 .87s.37.92 1 .92a1.68 1.68 0 0 0 1.57-1z"/>
  <path class="cls-5" d="M476.37 441.06a5.45 5.45 0 0 1-2.57.59 3 3 0 0 1-3.3-3v-3.69h-1.27v-2.19h1.27v-2.57h3.42v2.57h2.28v2.19h-2.28v3.16c0 .59.31.88.78.88a3.43 3.43 0 0 0 1.05-.27zM486.64 437.71h-6.22a1.8 1.8 0 0 0 1.8 1.38 3 3 0 0 0 2-.88L486 440a5.33 5.33 0 0 1-4.11 1.67c-3.09 0-5-1.87-5-4.71a4.55 4.55 0 0 1 4.88-4.78c3.3-.05 5.07 2.13 4.87 5.53zm-4.78-3.25c-.82 0-1.34.63-1.51 1.56h2.91a1.41 1.41 0 0 0-1.4-1.56zM497.72 435.64v5.86h-3.43v-4.88a1.33 1.33 0 0 0-1.33-1.5 1.59 1.59 0 0 0-1.51 1.8v4.57H488v-9.25h3.43v1.43a3.3 3.3 0 0 1 2.94-1.56 3.24 3.24 0 0 1 3.35 3.53zM508.58 432.25v8.45c0 2.6-2.06 4.25-5.08 4.25a8 8 0 0 1-4.27-1.21l1.14-2.31a5.33 5.33 0 0 0 2.84.85c1.24 0 2-.58 2-1.48v-.94a3.09 3.09 0 0 1-2.51 1.14c-2.24 0-3.88-1.77-3.88-4.47s1.58-4.37 3.81-4.37a3.19 3.19 0 0 1 2.55 1.12v-1zm-3.4 4.35c0-1.17-.63-1.94-1.58-1.94s-1.56.78-1.56 1.94.63 1.9 1.56 1.9 1.58-.76 1.58-1.89zM519.58 437.71h-6.22a1.8 1.8 0 0 0 1.8 1.38 3 3 0 0 0 2-.88L519 440a5.33 5.33 0 0 1-4.11 1.67c-3.09 0-5-1.87-5-4.71a4.55 4.55 0 0 1 4.88-4.78c3.23-.05 5.02 2.13 4.81 5.53zm-4.78-3.25c-.82 0-1.34.63-1.51 1.56h2.91a1.41 1.41 0 0 0-1.39-1.56zM527.3 432.12v3.09c-1.77-.22-2.91.53-2.91 1.87v4.42H521v-9.25h3.43v1.46a3.31 3.31 0 0 1 2.87-1.59zM538.84 436.93c0 2.84-1.65 4.69-4.2 4.69a3.28 3.28 0 0 1-2.62-1.19v4.37h-3.43v-12.55H532v1.07a3.16 3.16 0 0 1 2.53-1.19c2.61 0 4.31 1.87 4.31 4.8zm-3.47-.08c0-1.22-.66-2.06-1.68-2.06s-1.67.83-1.67 2.06.68 2.06 1.67 2.06 1.69-.84 1.69-2.07zM548.7 435.5v6h-3.37v-1a3.21 3.21 0 0 1-2.7 1.17 2.81 2.81 0 0 1-3.13-2.91c0-1.78 1.24-2.77 3.57-2.8h2.26c0-.77-.54-1.22-1.6-1.22a7.55 7.55 0 0 0-2.79.66l-.85-2.28a11.92 11.92 0 0 1 4.45-1c2.62 0 4.16 1.24 4.16 3.38zm-3.37 3v-.83h-1.56c-.68 0-1 .29-1 .87s.37.92 1 .92a1.68 1.68 0 0 0 1.57-1zM556.86 432.12v3.09c-1.77-.22-2.91.53-2.91 1.87v4.42h-3.43v-9.25H554v1.46a3.31 3.31 0 0 1 2.86-1.59zM564.39 441.06a5.45 5.45 0 0 1-2.57.59 3 3 0 0 1-3.3-3v-3.69h-1.27v-2.19h1.27v-2.57h3.42v2.57h2.28v2.19h-2.28v3.16c0 .59.31.88.78.88a3.43 3.43 0 0 0 1.05-.27z"/>
  <path class="cls-6" d="M575.26 436.88c0 2.86-2 4.74-5.13 4.74s-5.15-1.89-5.15-4.74 2-4.74 5.15-4.74 5.13 1.86 5.13 4.74zm-6.82 0c0 1.24.66 2.06 1.68 2.06s1.67-.82 1.67-2.06-.66-2.06-1.67-2.06-1.68.87-1.68 2.09zM586.32 435.64v5.86h-3.43v-4.88a1.33 1.33 0 0 0-1.33-1.5 1.59 1.59 0 0 0-1.51 1.8v4.57h-3.43v-9.25h3.43v1.43a3.3 3.3 0 0 1 2.94-1.56 3.24 3.24 0 0 1 3.33 3.53z"/>
  <path class="cls-5" d="M679 361c0 5.73-4.7 9.74-12.11 9.74a20.5 20.5 0 0 1-11.55-3.54l2.76-5.43a11.92 11.92 0 0 0 8.28 3.58c3.79 0 5.95-1.64 5.95-4.27s-2.16-4.14-6-4.14h-4.83v-3.75l7.72-7.41H656.9v-5.52h20.6v4.1l-8.75 8.19 1.64.22c5.09.57 8.61 3.5 8.61 8.23zM689.71 367.35a3.32 3.32 0 1 1-6.64 0 3.32 3.32 0 1 1 6.64 0z"/>
  <path class="cls-6" d="M729.84 347.78a6.61 6.61 0 0 1-5.22 6.64 7.4 7.4 0 0 1 6.29 7.63c0 5.17-4.35 8.36-11.38 8.36h-14.34v-30.18h13.88c6.64 0 10.77 2.89 10.77 7.55zm-7 1.25c0-2.07-1.59-3.23-4.14-3.23H712v6.6h6.72c2.54-.01 4.14-1.26 4.14-3.4zm1 12.16c0-2.2-1.94-3.54-5.17-3.54H712v7.2h6.72c3.28 0 5.17-1.34 5.17-3.67zM757.78 347.21v23.19h-6.6v-4.1a8.22 8.22 0 0 1-7.76 4.35c-5.13 0-8.36-3.41-8.36-8.88v-14.56h6.64v12.67c0 2.93 1.68 4.7 4.35 4.7 3.19 0 5.13-2.54 5.13-5.91v-11.46zm-18.36-6.77a3.11 3.11 0 1 1 3.1 3.23 3 3 0 0 1-3.11-3.22zm8.1 0a3.11 3.11 0 1 1 3.1 3.23 3 3 0 0 1-3.1-3.22zM774 361l-3 3.15v6.29h-6.64v-32H771V356l8.49-8.75h7.54l-8.49 8.92 8.88 14.23h-7.85zM800.71 361l-3 3.15v6.29h-6.61v-32h6.64V356l8.49-8.75h7.54l-8.49 8.92 8.88 14.23h-7.85zM712.92 317.2c0-.7-.51-1.08-1.41-1.08a7.34 7.34 0 0 0-4.22 2l-1.72-3.3a11.56 11.56 0 0 1 6.64-2.38c3.15 0 5.5 1.65 5.5 4.11 0 1.74-1.3 3.45-3 5.19l-2.77 2.77H718v3.56h-11.9v-2.93l5.48-5.68a4.14 4.14 0 0 0 1.34-2.26zM731.66 320.33c0 5.06-2.2 7.83-6.14 7.83s-6.16-2.77-6.16-7.83 2.18-7.83 6.16-7.83 6.14 2.79 6.14 7.83zm-7.94 0c0 3.39.48 4.73 1.8 4.73s1.78-1.34 1.78-4.73-.48-4.71-1.78-4.71-1.8 1.3-1.8 4.71zM741.6 312.63v15.42H737v-11.77h-2.82v-3.65zM759.12 312.6v3.1l-5.54 12.34h-4.84l5.35-11.88h-3.45v2.16h-4v-5.72zM764.33 326.14a2.08 2.08 0 1 1-4.16 0 2.08 2.08 0 0 1 4.16 0zM774.36 312.63v15.42h-4.58v-11.77H767v-3.65zM791.57 320.33c0 5.06-2.2 7.83-6.14 7.83s-6.16-2.77-6.16-7.83 2.18-7.83 6.16-7.83 6.14 2.79 6.14 7.83zm-7.94 0c0 3.39.48 4.73 1.8 4.73s1.78-1.34 1.78-4.73-.48-4.71-1.78-4.71-1.81 1.3-1.81 4.71zM797.09 326.14a2.08 2.08 0 1 1-4.16 0 2.08 2.08 0 0 1 4.16 0zM807.12 312.63v15.42h-4.58v-11.77h-2.82v-3.65zM820.54 312.6l-4 8.93h2.18v-3.12h4.18v3.12h1.87v3.34h-1.87v3.17h-4.18v-3.17H812v-3l4.27-9.29zM829.84 326.14a2.08 2.08 0 1 1-4.16 0 2.08 2.08 0 0 1 4.16 0zM716.52 394.22c0 2.84-1.65 4.69-4.2 4.69a3.27 3.27 0 0 1-2.62-1.19v1.07h-3.43v-12.61h3.43v4.44a3.15 3.15 0 0 1 2.53-1.19c2.59 0 4.29 1.9 4.29 4.79zm-3.47-.08c0-1.22-.66-2.06-1.68-2.06s-1.67.83-1.67 2.06.68 2.06 1.67 2.06 1.68-.84 1.68-2.07zM727.16 389.54v9.25h-3.43v-1.38a3.32 3.32 0 0 1-6.1-2v-5.86h3.43v4.9c0 .9.49 1.48 1.24 1.48s1.43-.75 1.43-1.8v-4.57zm-7.9-2.58a1.46 1.46 0 1 1 1.46 1.46 1.41 1.41 0 0 1-1.46-1.42zm3.43 0a1.46 1.46 0 1 1 1.46 1.46 1.41 1.41 0 0 1-1.46-1.42zM733.45 395.58l-.7.73v2.48h-3.43v-12.61h3.43v6.14l2.55-2.77h3.88l-3.38 3.57 3.4 5.68h-4.06zM744.47 395.58l-.7.73v2.48h-3.43v-12.61h3.43v6.14l2.55-2.77h3.88l-3.38 3.57 3.4 5.68h-4.06z"/>
  <path class="cls-6" d="M760.35 394.17c0 2.86-2 4.74-5.13 4.74s-5.15-1.89-5.15-4.74 2-4.74 5.15-4.74 5.13 1.87 5.13 4.74zM755 387a1.46 1.46 0 1 1-1.46-1.46A1.41 1.41 0 0 1 755 387zm-1.43 7.24c0 1.24.66 2.06 1.68 2.06s1.67-.82 1.67-2.06-.66-2.06-1.67-2.06-1.72.82-1.72 2.02zm4.86-7.24a1.46 1.46 0 1 1-1.46-1.46 1.41 1.41 0 0 1 1.42 1.46zM765.23 386.18v12.61h-3.43v-12.61zM776.38 395h-6.22a1.8 1.8 0 0 0 1.8 1.38 3 3 0 0 0 2-.88l1.78 1.75a5.33 5.33 0 0 1-4.11 1.67c-3.09 0-5-1.87-5-4.71a4.55 4.55 0 0 1 4.88-4.78c3.3 0 5.07 2.17 4.87 5.57zm-4-6.32h-2.52l1.82-3.06 3 1zm-.77 3.08c-.82 0-1.34.63-1.51 1.56h2.9a1.41 1.41 0 0 0-1.4-1.57zM781.24 391.7c-.42 0-.7.15-.7.44 0 1 4.83.58 4.83 3.74 0 1.9-1.65 3.06-4.06 3.06a7.4 7.4 0 0 1-4.35-1.31l1.05-2.16a6.36 6.36 0 0 0 3.35 1.14c.46 0 .76-.14.76-.42 0-1.05-4.73-.54-4.73-3.71 0-1.94 1.62-3.09 3.94-3.09a8.13 8.13 0 0 1 4.06 1.12l-1.14 2.16a7.3 7.3 0 0 0-3.01-.97zM714.69 413.19v6h-3.37v-1a3.21 3.21 0 0 1-2.7 1.17 2.81 2.81 0 0 1-3.13-2.91c0-1.79 1.24-2.77 3.57-2.8h2.26c0-.76-.54-1.22-1.6-1.22a7.53 7.53 0 0 0-2.79.66l-.85-2.28a11.94 11.94 0 0 1 4.45-1c2.61 0 4.16 1.19 4.16 3.38zm-3.37 3v-.83h-1.56c-.68 0-1 .29-1 .87s.37.92 1 .92a1.68 1.68 0 0 0 1.56-1z"/>
  <path class="cls-5" d="M727.18 419.19L725.6 416h-1.87v3.21h-3.54v-11.93h5.56c3.2 0 5 1.53 5 4.23a4.07 4.07 0 0 1-2 3.79l2.41 3.89zm-3.45-5.93h2a1.63 1.63 0 1 0 0-3.26h-2zM741.53 415.4h-6.22a1.8 1.8 0 0 0 1.8 1.38 3 3 0 0 0 2-.88l1.78 1.75a5.33 5.33 0 0 1-4.11 1.67c-3.09 0-5-1.87-5-4.71a4.55 4.55 0 0 1 4.88-4.78c3.34 0 5.07 2.17 4.87 5.57zm-4.78-3.25c-.82 0-1.34.63-1.51 1.56h2.91a1.41 1.41 0 0 0-1.4-1.55zM742.87 422.63a5.22 5.22 0 0 1-2.5-.58l.8-2.38a2 2 0 0 0 1 .29c.51 0 .82-.29.82-.88v-9.13h3.43v9.54c-.01 1.98-1.47 3.15-3.55 3.14zm3.72-15.32a1.91 1.91 0 1 1-1.9-1.77 1.76 1.76 0 0 1 1.9 1.77zM754.92 418.75a5.45 5.45 0 0 1-2.57.59 3 3 0 0 1-3.3-3v-3.69h-1.27v-2.19h1.27v-2.57h3.42v2.57h2.28v2.19h-2.28v3.16c0 .59.31.88.78.88a3.45 3.45 0 0 0 1.05-.27zM765.19 415.4H759a1.8 1.8 0 0 0 1.8 1.38 3 3 0 0 0 2-.88l1.79 1.75a5.33 5.33 0 0 1-4.11 1.67c-3.09 0-5-1.87-5-4.71a4.55 4.55 0 0 1 4.88-4.78c3.27 0 5.04 2.17 4.83 5.57zm-4.78-3.25c-.82 0-1.34.63-1.51 1.56h2.91a1.41 1.41 0 0 0-1.39-1.55zM770.79 416l-.7.73v2.48h-3.43v-12.63h3.43v6.14l2.55-2.77h3.88l-3.38 3.57 3.4 5.68h-4.06zM785.52 416l-.7.73v2.48h-3.43v-12.63h3.43v6.14l2.55-2.77h3.88l-3.38 3.57 3.4 5.68h-4.06zM801.61 409.95v9.25h-3.43v-1.38a3.32 3.32 0 0 1-6.1-2v-5.86h3.43v4.9c0 .9.49 1.48 1.24 1.48s1.43-.75 1.43-1.8v-4.57zM810 418.75a5.45 5.45 0 0 1-2.57.59 3 3 0 0 1-3.3-3v-3.69h-1.28v-2.19h1.28v-2.57h3.42v2.57h2.28v2.19h-2.28v3.16c0 .59.31.88.78.88a3.45 3.45 0 0 0 1.05-.27zM819.81 413.19v6h-3.37v-1a3.21 3.21 0 0 1-2.7 1.17 2.81 2.81 0 0 1-3.13-2.91c0-1.79 1.24-2.77 3.57-2.8h2.26c0-.76-.54-1.22-1.6-1.22a7.53 7.53 0 0 0-2.79.66l-.85-2.28a11.94 11.94 0 0 1 4.45-1c2.62 0 4.16 1.19 4.16 3.38zm-3.37 3v-.83h-1.56c-.68 0-1 .29-1 .87s.37.92 1 .92a1.68 1.68 0 0 0 1.57-1zM828 418.75a5.45 5.45 0 0 1-2.57.59 3 3 0 0 1-3.3-3v-3.69h-1.27v-2.19h1.27v-2.57h3.42v2.57h2.28v2.19h-2.28v3.16c0 .59.31.88.78.88a3.45 3.45 0 0 0 1.05-.27zM838.82 414.57c0 2.86-2 4.74-5.13 4.74s-5.15-1.89-5.15-4.74 2-4.74 5.15-4.74 5.13 1.87 5.13 4.74zm-6.82 0c0 1.24.66 2.06 1.68 2.06s1.67-.82 1.67-2.06-.66-2.06-1.67-2.06-1.68.87-1.68 2.09zm4.83-7.6l-2.28 2.07H832l1.82-3.06zM850 413.33v5.86h-3.43v-4.88a1.32 1.32 0 0 0-1.33-1.5 1.59 1.59 0 0 0-1.51 1.8v4.57h-3.43v-12.6h3.43v4.79a3.3 3.3 0 0 1 2.94-1.56 3.23 3.23 0 0 1 3.33 3.52zM860.29 413.19v6h-3.37v-1a3.21 3.21 0 0 1-2.7 1.17 2.81 2.81 0 0 1-3.13-2.91c0-1.79 1.24-2.77 3.57-2.8h2.26c0-.76-.54-1.22-1.6-1.22a7.53 7.53 0 0 0-2.79.66l-.85-2.28a11.94 11.94 0 0 1 4.45-1c2.61 0 4.16 1.19 4.16 3.38zm-3.5-4.11h-2.52l1.82-3.06 3 1zm.14 7.07v-.83h-1.56c-.68 0-1 .29-1 .87s.37.92 1 .92a1.68 1.68 0 0 0 1.55-.96zM861.53 419.19v-2l4.15-4.64h-4v-2.58H870v2l-4.15 4.64h4.32v2.57z"/>
  <path class="cls-6" d="M881.95 414.62c0 2.84-1.65 4.69-4.2 4.69a3.28 3.28 0 0 1-2.62-1.19v1.07h-3.43v-12.61h3.43V411a3.15 3.15 0 0 1 2.53-1.19c2.59.02 4.29 1.92 4.29 4.81zm-3.47-.08c0-1.22-.66-2.06-1.68-2.06s-1.67.83-1.67 2.06.68 2.06 1.67 2.06 1.68-.84 1.68-2.07zM891.81 413.19v6h-3.37v-1a3.21 3.21 0 0 1-2.7 1.17 2.81 2.81 0 0 1-3.13-2.91c0-1.79 1.24-2.77 3.57-2.8h2.26c0-.76-.54-1.22-1.6-1.22a7.53 7.53 0 0 0-2.79.66l-.85-2.28a11.94 11.94 0 0 1 4.45-1c2.61 0 4.16 1.19 4.16 3.38zm-3.37 3v-.83h-1.56c-.68 0-1 .29-1 .87s.37.92 1 .92a1.68 1.68 0 0 0 1.56-1zM903.33 413.33v5.86h-3.43v-4.88a1.33 1.33 0 0 0-1.33-1.5 1.59 1.59 0 0 0-1.51 1.8v4.57h-3.43v-9.25h3.43v1.43a3.3 3.3 0 0 1 2.94-1.56 3.24 3.24 0 0 1 3.33 3.53z"/>
  <path class="cls-5" d="M583.85 162.91c0-1.94-1.51-3.06-4.14-3.06s-5.69 1.47-8.41 3.79l-2.67-5.09a20.1 20.1 0 0 1 12.07-4.48c6 0 10.3 3.06 10.3 7.8 0 3.23-2.46 6.59-5.78 10l-7 6.94h13.88v5.73h-22.69v-4.7l11.16-11.51c1.94-1.88 3.28-3.95 3.28-5.42zM602.3 181.53a3.32 3.32 0 1 1-6.64 0 3.32 3.32 0 1 1 6.64 0z"/>
  <path class="cls-6" d="M642.43 162a6.61 6.61 0 0 1-5.22 6.64 7.4 7.4 0 0 1 6.29 7.63c0 5.17-4.35 8.36-11.38 8.36h-14.35v-30.21h13.88c6.64 0 10.78 2.89 10.78 7.58zm-7 1.25c0-2.07-1.59-3.23-4.14-3.23h-6.72v6.6h6.72c2.56-.04 4.16-1.29 4.16-3.41zm1 12.16c0-2.2-1.94-3.54-5.17-3.54h-6.72V179h6.72c3.28 0 5.22-1.3 5.22-3.63zM670.36 161.4v23.19h-6.6v-4.1a8.22 8.22 0 0 1-7.76 4.35c-5.13 0-8.36-3.41-8.36-8.88V161.4h6.64v12.67c0 2.93 1.68 4.7 4.35 4.7 3.19 0 5.13-2.54 5.13-5.91V161.4zM699.68 152.61v32h-6.6v-3.41a8.47 8.47 0 0 1-7.33 3.66c-6.59 0-10.95-4.79-10.95-11.94s4.31-11.77 10.78-11.77a8.73 8.73 0 0 1 7.5 3.66v-12.2zm-6.6 20.48c0-3.79-2.37-6.42-5.78-6.42s-5.82 2.67-5.86 6.42 2.37 6.42 5.86 6.42 5.78-2.63 5.78-6.43zM719.77 184.59v-2.72c-1.55 1.94-4.05 3-7.29 3-5 0-8-3-8-7.24s3.15-6.94 8.84-7h6.38v-.43c0-2.46-1.64-3.88-4.83-3.88a14.69 14.69 0 0 0-6.9 2l-2.07-4.57a21.74 21.74 0 0 1 10.48-2.67c6.21 0 9.78 3.1 9.83 8.32v15.13zm0-7.93v-2.07h-5.22c-2.54 0-3.79.78-3.79 2.63s1.38 2.93 3.62 2.93c2.76 0 4.96-1.5 5.34-3.49zM757.1 173.13c0 7-4.27 11.73-10.78 11.73a8.78 8.78 0 0 1-7.46-3.62V193h-6.64v-31.6h6.64v3.41a8.59 8.59 0 0 1 7.33-3.62c6.51 0 10.91 4.81 10.91 11.94zm-6.72-.21c0-3.71-2.33-6.38-5.73-6.38s-5.78 2.63-5.78 6.38 2.37 6.42 5.78 6.42 5.73-2.63 5.73-6.43zM782.84 175H766.2a5.93 5.93 0 0 0 6 4.66 8.22 8.22 0 0 0 5.86-2.46l3.49 3.53a12.93 12.93 0 0 1-9.91 4.1c-7.41 0-12.11-4.74-12.11-11.77s4.87-11.9 11.94-11.9c8.13.03 11.93 5.42 11.37 13.84zm-6.21-3.92a4.84 4.84 0 0 0-5.13-5c-2.93 0-4.91 2-5.43 5zM794.78 166c-1.55 0-2.67.52-2.67 1.72 0 3.49 12.24 1.72 12.2 9.91 0 4.74-4.18 7.24-9.44 7.24a16.19 16.19 0 0 1-10-3.23l2.16-4.48A14 14 0 0 0 795 180c1.68 0 2.93-.56 2.93-1.81 0-3.71-12-1.72-12-9.87 0-4.79 4.1-7.24 9.14-7.24a17.29 17.29 0 0 1 9.05 2.59l-2.29 4.53a15.69 15.69 0 0 0-7.05-2.2zM823.1 183.3a12.35 12.35 0 0 1-6 1.59c-4.14 0-7.29-2.37-7.29-7.16V167h-3.23v-4.57h3.23v-6.38h6.6v6.38h6.29v4.61h-6.29v9.57c0 1.94.82 2.72 2.24 2.67a7.72 7.72 0 0 0 3.1-.86zM626.2 131.81c0-.7-.51-1.08-1.41-1.08a7.34 7.34 0 0 0-4.22 2l-1.72-3.3a11.56 11.56 0 0 1 6.64-2.38c3.15 0 5.5 1.65 5.5 4.11 0 1.74-1.3 3.45-3 5.19l-2.77 2.77h6.12v3.56h-11.96v-2.93l5.48-5.68a4.14 4.14 0 0 0 1.34-2.26zM644.94 134.93c0 5.06-2.2 7.83-6.14 7.83s-6.16-2.77-6.16-7.83 2.18-7.83 6.16-7.83 6.14 2.79 6.14 7.83zm-7.94 0c0 3.39.48 4.73 1.8 4.73s1.78-1.34 1.78-4.73-.48-4.71-1.78-4.71-1.8 1.3-1.8 4.71zM654.88 127.23v15.42h-4.58v-11.77h-2.82v-3.65zM672.4 127.21v3.1l-5.54 12.34H662l5.35-11.88h-3.45v2.16h-4v-5.72zM677.61 140.74a2.08 2.08 0 1 1-4.16 0 2.08 2.08 0 0 1 4.16 0zM691.27 134.93c0 5.06-2.2 7.83-6.14 7.83S679 140 679 134.93s2.18-7.83 6.16-7.83 6.11 2.79 6.11 7.83zm-7.94 0c0 3.39.48 4.73 1.8 4.73s1.78-1.34 1.78-4.73-.48-4.71-1.78-4.71-1.8 1.3-1.8 4.71zM697.34 139.46c2.18 0 3.26-1.28 3.23-3.5a4 4 0 0 1-3.37 1.47c-2.95 0-4.86-2-4.86-5.06 0-3.28 2.31-5.35 5.77-5.35 4.14 0 6.64 2.95 6.64 7.68 0 4.93-2.79 8.14-7.15 8.14a10.07 10.07 0 0 1-5-1.32l1.67-3.06a4.92 4.92 0 0 0 3.07 1zm-.9-7.06a1.63 1.63 0 0 0 1.78 1.83 1.72 1.72 0 0 0 1.91-1.87 1.85 1.85 0 1 0-3.7 0zM710.37 140.74a2.08 2.08 0 1 1-4.16 0 2.08 2.08 0 0 1 4.16 0zM718.86 131.81c0-.7-.51-1.08-1.41-1.08a7.34 7.34 0 0 0-4.22 2l-1.72-3.3a11.56 11.56 0 0 1 6.64-2.38c3.15 0 5.5 1.65 5.5 4.11 0 1.74-1.3 3.45-3 5.19l-2.77 2.77H724v3.56h-12v-2.93l5.48-5.68a4.14 4.14 0 0 0 1.38-2.26zM737 131.26a3.82 3.82 0 0 1-1.69 3.13 4.38 4.38 0 0 1 2.51 3.89c0 2.79-2.51 4.58-6.36 4.58s-6.32-1.76-6.32-4.49a4.43 4.43 0 0 1 2.71-4 4.07 4.07 0 0 1-1.91-3.26c0-2.51 2.18-4.11 5.5-4.11s5.56 1.68 5.56 4.26zm-7.59 6.65c0 1.08.73 1.67 2 1.67s2.09-.59 2.09-1.67-.75-1.72-2.07-1.72-2.03.61-2.03 1.71zm.33-6.4c0 .92.59 1.43 1.72 1.43s1.74-.51 1.74-1.43-.59-1.5-1.74-1.5-1.73.52-1.73 1.49zM743.12 140.74a2.08 2.08 0 1 1-4.16 0 2.08 2.08 0 0 1 4.16 0zM621 201.66c-.42 0-.7.15-.7.44 0 1 4.83.58 4.83 3.74 0 1.9-1.65 3.06-4.06 3.06a7.4 7.4 0 0 1-4.35-1.31l1.05-2.16a6.37 6.37 0 0 0 3.35 1.14c.46 0 .76-.14.76-.42 0-1.05-4.73-.54-4.73-3.71 0-1.94 1.62-3.09 3.94-3.09a8.13 8.13 0 0 1 4.06 1.12l-1.15 2.16a7.3 7.3 0 0 0-3-.97zM636.13 204.12c0 2.86-2 4.74-5.13 4.74s-5.15-1.89-5.15-4.74 2-4.74 5.15-4.74 5.13 1.87 5.13 4.74zm-5.39-7.21a1.46 1.46 0 1 1-1.46-1.46 1.41 1.41 0 0 1 1.46 1.47zm-1.43 7.24c0 1.24.66 2.06 1.68 2.06s1.67-.82 1.67-2.06-.66-2.05-1.66-2.05-1.68.84-1.68 2.06zm4.86-7.24a1.46 1.46 0 1 1-1.46-1.46 1.41 1.41 0 0 1 1.47 1.47zM643.83 199.37v3.09c-1.77-.22-2.91.53-2.91 1.87v4.42h-3.43v-9.25h3.43v1.5a3.31 3.31 0 0 1 2.91-1.63zM654.61 204.12c0 2.86-2 4.74-5.13 4.74s-5.15-1.89-5.15-4.74 2-4.74 5.15-4.74 5.13 1.87 5.13 4.74zm-5.39-7.21a1.46 1.46 0 1 1-1.46-1.46 1.41 1.41 0 0 1 1.46 1.47zm-1.43 7.24c0 1.24.66 2.06 1.68 2.06s1.67-.82 1.67-2.06-.66-2.06-1.67-2.06-1.68.85-1.68 2.07zm4.86-7.24a1.46 1.46 0 1 1-1.46-1.46 1.41 1.41 0 0 1 1.47 1.47zM655.41 208.75v-2l4.15-4.64h-4v-2.61h8.29v2l-4.15 4.64h4.3v2.57zM674.45 205h-6.22a1.8 1.8 0 0 0 1.8 1.38 3 3 0 0 0 2-.88l1.79 1.75a5.34 5.34 0 0 1-4.11 1.67c-3.09 0-5-1.87-5-4.71a4.55 4.55 0 0 1 4.88-4.78c3.3-.05 5.06 2.13 4.86 5.57zm-4-6.32h-2.52l1.82-3.06 3 1zm-.76 3.08c-.82 0-1.34.63-1.51 1.56h2.91a1.41 1.41 0 0 0-1.42-1.61zM679.31 201.66c-.42 0-.7.15-.7.44 0 1 4.83.58 4.83 3.74 0 1.9-1.65 3.06-4.06 3.06a7.4 7.4 0 0 1-4.35-1.31l1.05-2.16a6.37 6.37 0 0 0 3.35 1.14c.46 0 .76-.14.76-.42 0-1.05-4.73-.54-4.73-3.71 0-1.94 1.62-3.09 3.94-3.09a8.13 8.13 0 0 1 4.06 1.12l-1.14 2.16a7.3 7.3 0 0 0-3.01-.97zM697.14 202.75v6h-3.37v-1a3.21 3.21 0 0 1-2.7 1.17 2.81 2.81 0 0 1-3.13-2.91c0-1.79 1.24-2.77 3.57-2.8h2.26c0-.76-.54-1.22-1.6-1.22a7.52 7.52 0 0 0-2.79.66l-.85-2.28a11.94 11.94 0 0 1 4.45-1c2.62 0 4.16 1.24 4.16 3.38zm-3.37 3v-.83h-1.56c-.68 0-1 .29-1 .87s.37.92 1 .92a1.68 1.68 0 0 0 1.57-1zM705 199.5l1.7 6.12 1.72-6.12h3.43l-3.45 9.25h-3.5l-3.43-9.25zM721 202.75v6h-3.37v-1a3.21 3.21 0 0 1-2.7 1.17 2.81 2.81 0 0 1-3.13-2.91c0-1.79 1.24-2.77 3.57-2.8h2.26c0-.76-.54-1.22-1.6-1.22a7.52 7.52 0 0 0-2.79.66l-.85-2.28a11.94 11.94 0 0 1 4.45-1c2.64 0 4.16 1.24 4.16 3.38zm-3.5-4.11H715l1.82-3.06 3 1zm.14 7.07v-.83h-1.54c-.68 0-1 .29-1 .87s.37.92 1 .92a1.68 1.68 0 0 0 1.56-.96zM729.19 199.37v3.09c-1.77-.22-2.91.53-2.91 1.87v4.42h-3.43v-9.25h3.43v1.5a3.31 3.31 0 0 1 2.91-1.63zM740 204.12c0 2.86-2 4.74-5.13 4.74s-5.15-1.89-5.15-4.74 2-4.74 5.15-4.74 5.13 1.87 5.13 4.74zm-6.82 0c0 1.24.66 2.06 1.68 2.06s1.67-.82 1.67-2.06-.66-2.06-1.67-2.06-1.71.88-1.71 2.1zM744.81 201.66c-.42 0-.7.15-.7.44 0 1 4.83.58 4.83 3.74 0 1.9-1.65 3.06-4.06 3.06a7.4 7.4 0 0 1-4.35-1.31l1.05-2.16a6.37 6.37 0 0 0 3.35 1.14c.46 0 .76-.14.76-.42 0-1.05-4.73-.54-4.73-3.71 0-1.94 1.62-3.09 3.94-3.09a8.13 8.13 0 0 1 4.06 1.12l-1.14 2.16a7.3 7.3 0 0 0-3.01-.97zM760.76 204.18c0 2.84-1.65 4.69-4.2 4.69a3.28 3.28 0 0 1-2.62-1.19v1.07h-3.43v-12.61h3.43v4.44a3.15 3.15 0 0 1 2.53-1.19c2.59-.01 4.29 1.9 4.29 4.79zm-3.47-.08c0-1.22-.66-2.06-1.68-2.06s-1.67.83-1.67 2.06.68 2.06 1.67 2.06 1.68-.84 1.68-2.07zM770.62 202.75v6h-3.37v-1a3.21 3.21 0 0 1-2.7 1.17 2.81 2.81 0 0 1-3.13-2.91c0-1.79 1.24-2.77 3.57-2.8h2.26c0-.76-.54-1.22-1.6-1.22a7.53 7.53 0 0 0-2.79.66l-.85-2.28a11.94 11.94 0 0 1 4.45-1c2.61 0 4.16 1.24 4.16 3.38zm-3.37 3v-.83h-1.56c-.68 0-1 .29-1 .87s.37.92 1 .92a1.68 1.68 0 0 0 1.56-1zM782.14 202.88v5.86h-3.43v-4.88a1.33 1.33 0 0 0-1.33-1.5 1.59 1.59 0 0 0-1.51 1.8v4.57h-3.43v-9.23h3.43v1.43a3.3 3.3 0 0 1 2.94-1.56 3.24 3.24 0 0 1 3.33 3.51z"/>
  <path class="cls-5" d="M627.26 223.28v5.86h-3.43v-4.88a1.32 1.32 0 0 0-1.33-1.5 1.59 1.59 0 0 0-1.51 1.8v4.57h-3.43v-12.59H621v4.79a3.3 3.3 0 0 1 2.94-1.56 3.23 3.23 0 0 1 3.32 3.51zM638.05 225.36h-6.22a1.8 1.8 0 0 0 1.8 1.38 3 3 0 0 0 2-.88l1.79 1.75a5.33 5.33 0 0 1-4.11 1.67c-3.09 0-5-1.87-5-4.71a4.55 4.55 0 0 1 4.88-4.78c3.3-.01 5.07 2.21 4.86 5.57zm-4.78-3.25c-.82 0-1.34.63-1.51 1.56h2.91a1.41 1.41 0 0 0-1.39-1.56zM642.95 216.54v12.61h-3.43v-12.61zM646.79 232.6a4.65 4.65 0 0 1-3-1l1.43-2.29a1.76 1.76 0 0 0 1.24.53 1 1 0 0 0 1-.59l.17-.32-3.82-9h3.52l2 5.66 1.72-5.66h3.42l-3.88 10a3.82 3.82 0 0 1-3.8 2.67zM658.74 222.06c-.42 0-.7.15-.7.44 0 1 4.83.58 4.83 3.74 0 1.9-1.65 3.06-4.06 3.06a7.4 7.4 0 0 1-4.35-1.31l1.05-2.16a6.37 6.37 0 0 0 3.35 1.14c.46 0 .76-.14.76-.42 0-1.05-4.73-.54-4.73-3.71 0-1.94 1.62-3.09 3.94-3.09a8.14 8.14 0 0 1 4.06 1.12l-1.12 2.13a7.3 7.3 0 0 0-3.03-.94zM663.81 229.15v-2l4.15-4.64h-4v-2.61h8.29v2l-4.15 4.64h4.32v2.57zM677.32 219.9v9.25h-3.43v-9.25zm1.44-2.94l-2.27 2.04H674l1.82-3.06zM689.1 223.28v5.86h-3.43v-4.88a1.33 1.33 0 0 0-1.33-1.5 1.59 1.59 0 0 0-1.51 1.8v4.57h-3.43v-9.23h3.43v1.43a3.3 3.3 0 0 1 2.94-1.56 3.24 3.24 0 0 1 3.33 3.51z"/>
  <path class="cls-6" d="M704.44 223.28v5.86H701v-4.88a1.32 1.32 0 0 0-1.33-1.5 1.59 1.59 0 0 0-1.51 1.8v4.57h-3.43v-12.59h3.43v4.79a3.3 3.3 0 0 1 2.94-1.56 3.23 3.23 0 0 1 3.34 3.51zM714.76 223.15v6h-3.37v-1a3.21 3.21 0 0 1-2.7 1.17 2.81 2.81 0 0 1-3.13-2.91c0-1.78 1.24-2.77 3.57-2.8h2.26c0-.77-.54-1.22-1.6-1.22a7.54 7.54 0 0 0-2.79.61l-.85-2.28a11.92 11.92 0 0 1 4.45-1c2.61.05 4.16 1.28 4.16 3.43zm-3.37 3v-.83h-1.56c-.68 0-1 .29-1 .87s.37.92 1 .92a1.68 1.68 0 0 0 1.56-1zM732.33 223.28v5.86h-3.43v-4.88c0-.92-.51-1.5-1.27-1.5s-1.45.75-1.45 1.8v4.57h-3.43v-4.88c0-.92-.51-1.5-1.27-1.5s-1.46.75-1.46 1.8v4.57h-3.43v-9.22H720v1.41a3.22 3.22 0 0 1 2.87-1.55 3.11 3.11 0 0 1 3 2 3.27 3.27 0 0 1 3.13-2 3.21 3.21 0 0 1 3.33 3.52zM742.65 223.15v6h-3.37v-1a3.21 3.21 0 0 1-2.7 1.17 2.81 2.81 0 0 1-3.13-2.91c0-1.78 1.24-2.77 3.57-2.8h2.26c0-.77-.54-1.22-1.6-1.22a7.55 7.55 0 0 0-2.79.66l-.85-2.28a11.92 11.92 0 0 1 4.45-1c2.62 0 4.16 1.23 4.16 3.38zm-3.37 3v-.83h-1.56c-.68 0-1 .29-1 .87s.37.92 1 .92a1.68 1.68 0 0 0 1.57-1zM750.81 219.77v3.09c-1.77-.22-2.91.53-2.91 1.87v4.42h-3.43v-9.25h3.43v1.46a3.31 3.31 0 0 1 2.91-1.59zM761.59 224.53c0 2.86-2 4.74-5.13 4.74s-5.15-1.89-5.15-4.74 2-4.74 5.15-4.74 5.13 1.86 5.13 4.74zm-6.82 0c0 1.24.66 2.06 1.68 2.06s1.67-.82 1.67-2.06-.66-2.06-1.67-2.06-1.68.86-1.68 2.09zM766.44 222.06c-.42 0-.7.15-.7.44 0 1 4.83.58 4.83 3.74 0 1.9-1.65 3.06-4.06 3.06a7.4 7.4 0 0 1-4.35-1.31l1.05-2.16a6.37 6.37 0 0 0 3.35 1.14c.46 0 .76-.14.76-.42 0-1.05-4.73-.54-4.73-3.71 0-1.94 1.62-3.09 3.94-3.09a8.14 8.14 0 0 1 4.06 1.12l-1.13 2.13a7.3 7.3 0 0 0-3.02-.94zM780.54 223.15v6h-3.37v-1a3.21 3.21 0 0 1-2.7 1.17 2.81 2.81 0 0 1-3.13-2.91c0-1.78 1.24-2.77 3.57-2.8h2.26c0-.77-.54-1.22-1.6-1.22a7.54 7.54 0 0 0-2.79.66l-.85-2.28a11.92 11.92 0 0 1 4.45-1c2.62 0 4.16 1.23 4.16 3.38zm-3.37 3v-.83h-1.56c-.68 0-1 .29-1 .87s.37.92 1 .92a1.68 1.68 0 0 0 1.57-1zM792.07 223.28v5.86h-3.43v-4.88a1.33 1.33 0 0 0-1.33-1.5 1.59 1.59 0 0 0-1.51 1.8v4.57h-3.43v-9.23h3.43v1.43a3.3 3.3 0 0 1 2.94-1.56 3.24 3.24 0 0 1 3.33 3.51zM796.63 227.67a1.61 1.61 0 1 1-3.21 0 1.61 1.61 0 0 1 3.21 0zM801 227.67a1.61 1.61 0 1 1-3.21 0 1.61 1.61 0 0 1 3.21 0zM805.3 227.67a1.61 1.61 0 1 1-3.21 0 1.61 1.61 0 0 1 3.21 0z"/>
  <path class="cls-4" d="M181 82.73c0 9.87-4.14 15.3-11.64 15.3s-11.66-5.43-11.66-15.3 4.14-15.3 11.68-15.3S181 72.9 181 82.73zm-16.73 0c0 7.16 1.59 10.3 5.09 10.3s5-3.15 5-10.3-1.6-10.3-5-10.3-5.06 3.1-5.06 10.3zM191 94.8a3.32 3.32 0 1 1-6.64 0 3.32 3.32 0 1 1 6.64 0z"/>
  <path class="cls-7" d="M213.31 67.69v12.58H227V67.69h6.81v30.17H227V86h-13.69v11.9h-6.81V67.69zM253.75 97.86v-2.71c-1.55 1.94-4.05 3-7.29 3-5 0-8-3-8-7.24s3.15-6.94 8.84-7h6.38v-.43c0-2.46-1.64-3.88-4.83-3.88a14.69 14.69 0 0 0-6.9 2l-2.07-4.57a21.74 21.74 0 0 1 10.48-2.67c6.21 0 9.78 3.1 9.83 8.32v15.13zm0-7.93v-2.07h-5.22c-2.54 0-3.79.78-3.79 2.63s1.38 2.93 3.62 2.93c2.76 0 4.96-1.51 5.34-3.49zM280.34 96.57a12.35 12.35 0 0 1-6 1.59c-4.14 0-7.28-2.37-7.28-7.16V80.27h-3.23v-4.56H267v-6.38h6.6v6.38h6.29v4.61h-6.29v9.57c0 1.94.82 2.72 2.24 2.67a7.72 7.72 0 0 0 3.1-.86zM298.71 96.57a12.35 12.35 0 0 1-6 1.59c-4.14 0-7.28-2.37-7.28-7.16V80.27h-3.23v-4.56h3.23v-6.38H292v6.38h6.29v4.61H292v9.57c0 1.94.82 2.72 2.24 2.67a7.72 7.72 0 0 0 3.1-.86zM316.17 97.86v-2.71c-1.55 1.94-4.05 3-7.29 3-5 0-8-3-8-7.24s3.15-6.94 8.84-7h6.38v-.43c0-2.46-1.64-3.88-4.83-3.88a14.69 14.69 0 0 0-6.9 2l-2.07-4.57a21.74 21.74 0 0 1 10.48-2.67c6.21 0 9.78 3.1 9.83 8.32v15.13zm0-7.93v-2.07h-5.22c-2.54 0-3.79.78-3.79 2.63s1.38 2.93 3.62 2.93c2.76 0 4.96-1.51 5.35-3.49zM166.73 44.34c0-.7-.51-1.08-1.41-1.08a7.35 7.35 0 0 0-4.22 2l-1.72-3.3a11.57 11.57 0 0 1 6.62-2.42c3.15 0 5.5 1.65 5.5 4.11 0 1.74-1.3 3.46-3 5.19l-2.77 2.77h6.12v3.56H159.9v-2.91l5.48-5.68a4.15 4.15 0 0 0 1.35-2.24zM185.47 47.46c0 5.06-2.2 7.83-6.14 7.83s-6.16-2.77-6.16-7.83 2.18-7.83 6.16-7.83 6.14 2.79 6.14 7.83zm-7.94 0c0 3.39.48 4.73 1.8 4.73s1.78-1.34 1.78-4.73-.48-4.71-1.78-4.71-1.8 1.3-1.8 4.71zM195.41 39.76v15.43h-4.58V43.42H188v-3.66zM207.82 42.93c-2.16 0-3.26 1.3-3.23 3.52A4 4 0 0 1 208 45a4.67 4.67 0 0 1 4.88 5c0 3.28-2.31 5.37-5.76 5.37-4.14 0-6.67-3-6.67-7.7 0-4.93 2.82-8.12 7.15-8.12a10.32 10.32 0 0 1 5 1.3l-1.67 3.08a5 5 0 0 0-3.11-1zM205 50a1.71 1.71 0 0 0 1.89 1.85 1.69 1.69 0 0 0 1.88-1.85 1.65 1.65 0 0 0-1.8-1.83A1.75 1.75 0 0 0 205 50zM218.14 53.27a2.08 2.08 0 1 1-4.16 0 2.08 2.08 0 0 1 4.16 0zM231.8 47.46c0 5.06-2.2 7.83-6.14 7.83s-6.16-2.77-6.16-7.83 2.18-7.83 6.16-7.83 6.14 2.79 6.14 7.83zm-7.94 0c0 3.39.48 4.73 1.8 4.73s1.78-1.34 1.78-4.73-.48-4.71-1.78-4.71-1.8 1.3-1.8 4.71zM237.87 52c2.18 0 3.26-1.28 3.23-3.5a4 4 0 0 1-3.36 1.5c-2.95 0-4.86-2-4.86-5.06 0-3.28 2.31-5.35 5.77-5.35 4.14 0 6.64 2.95 6.64 7.68 0 4.93-2.79 8.14-7.15 8.14a10.08 10.08 0 0 1-5-1.32l1.65-3.09a4.92 4.92 0 0 0 3.08 1zm-.9-7.06a1.63 1.63 0 0 0 1.78 1.83 1.73 1.73 0 0 0 1.91-1.87 1.7 1.7 0 0 0-1.86-1.9 1.68 1.68 0 0 0-1.8 1.93zM250.9 53.27a2.08 2.08 0 1 1-4.16 0 2.08 2.08 0 0 1 4.16 0zM259.39 44.34c0-.7-.51-1.08-1.41-1.08a7.35 7.35 0 0 0-4.22 2L252 41.92a11.57 11.57 0 0 1 6.65-2.38c3.15 0 5.5 1.65 5.5 4.11 0 1.74-1.3 3.46-3 5.19l-2.77 2.77h6.12v3.56h-11.93v-2.91l5.43-5.68a4.15 4.15 0 0 0 1.39-2.24zM277.52 43.79a3.81 3.81 0 0 1-1.69 3.12 4.38 4.38 0 0 1 2.51 3.89c0 2.79-2.51 4.58-6.36 4.58s-6.31-1.76-6.31-4.49a4.43 4.43 0 0 1 2.71-4 4.07 4.07 0 0 1-1.91-3.26c0-2.51 2.18-4.11 5.5-4.11s5.55 1.69 5.55 4.27zm-7.59 6.64c0 1.08.73 1.67 2 1.67s2.09-.59 2.09-1.67-.75-1.72-2.07-1.72-2.03.62-2.03 1.72zm.33-6.4c0 .92.59 1.43 1.72 1.43s1.74-.51 1.74-1.43-.59-1.5-1.74-1.5-1.73.53-1.73 1.47zM283.65 53.27a2.08 2.08 0 1 1-4.16 0 2.08 2.08 0 0 1 4.16 0z"/>
  <path class="cls-4" d="M166.32 121.63a5.45 5.45 0 0 1-2.57.59 3 3 0 0 1-3.3-3v-3.69h-1.27v-2.23h1.27v-2.57h3.42v2.57h2.28v2.19h-2.28v3.16c0 .59.31.88.78.88a3.43 3.43 0 0 0 1.05-.27zM174 112.69v3.09c-1.77-.22-2.91.53-2.91 1.87v4.42h-3.43v-9.25h3.43v1.46a3.31 3.31 0 0 1 2.91-1.59zM184.75 117.45c0 2.86-2 4.74-5.13 4.74s-5.15-1.89-5.15-4.74 2-4.74 5.15-4.74 5.13 1.87 5.13 4.74zm-6.82 0c0 1.24.66 2.06 1.68 2.06s1.67-.82 1.67-2.06-.66-2.06-1.67-2.06-1.68.87-1.68 2.09zm4.83-7.6l-2.28 2.15H178l1.82-3.06zM196.44 117.5c0 2.84-1.65 4.69-4.2 4.69a3.27 3.27 0 0 1-2.62-1.19v4.37h-3.43v-12.54h3.43v1.07a3.15 3.15 0 0 1 2.53-1.19c2.59 0 4.29 1.9 4.29 4.79zm-3.47-.08c0-1.22-.66-2.06-1.68-2.06s-1.67.83-1.67 2.06.68 2.06 1.67 2.06 1.71-.84 1.71-2.06zM207.08 112.83v9.25h-3.43v-1.38a3.32 3.32 0 0 1-6.1-2v-5.86H201v4.89c0 .9.49 1.48 1.24 1.48s1.43-.75 1.43-1.8v-4.57zM212.64 115c-.42 0-.7.15-.7.44 0 1 4.83.58 4.83 3.74 0 1.9-1.65 3.06-4.06 3.06a7.4 7.4 0 0 1-4.35-1.31l1.05-2.16a6.36 6.36 0 0 0 3.35 1.14c.46 0 .76-.14.76-.42 0-1.05-4.73-.54-4.73-3.71 0-1.94 1.62-3.09 3.94-3.09a8.13 8.13 0 0 1 4.06 1.12l-1.12 2.19a7.3 7.3 0 0 0-3.03-1z"/>
  <path class="cls-7" d="M221.75 110.19a1.77 1.77 0 1 1-1.77-1.77 1.7 1.7 0 0 1 1.77 1.77zm-.07 2.63v9.25h-3.43v-9.25zM231 109.46v12.61h-3.43v-12.61zM241.68 116.07v6h-3.37v-1a3.21 3.21 0 0 1-2.7 1.17 2.81 2.81 0 0 1-3.13-2.91c0-1.78 1.24-2.77 3.57-2.8h2.26c0-.77-.54-1.22-1.6-1.22a7.53 7.53 0 0 0-2.79.66l-.85-2.28a11.92 11.92 0 0 1 4.45-1c2.61 0 4.16 1.24 4.16 3.38zm-3.5-4.11h-2.52l1.82-3.06 3 1zm.14 7.07v-.83h-1.56c-.68 0-1 .29-1 .87s.37.92 1 .92a1.68 1.68 0 0 0 1.55-.99zM253.2 116.21v5.86h-3.43v-4.88a1.33 1.33 0 0 0-1.33-1.5 1.59 1.59 0 0 0-1.51 1.8v4.57h-3.43v-9.25h3.43v1.43a3.3 3.3 0 0 1 2.94-1.56 3.24 3.24 0 0 1 3.33 3.53zM256.64 125.52a4.65 4.65 0 0 1-3-1l1.43-2.29a1.76 1.76 0 0 0 1.24.53 1 1 0 0 0 1-.6l.17-.32-3.82-9h3.52l2 5.66 1.72-5.66h3.42l-3.88 10a3.82 3.82 0 0 1-3.8 2.68zM269.47 118.86l-.7.73v2.48h-3.43v-12.61h3.43v6.14l2.55-2.77h3.88l-3.38 3.57 3.4 5.68h-4.06z"/>
  <path class="cls-7" d="M284.76 118.28h-6.22a1.8 1.8 0 0 0 1.8 1.38 3 3 0 0 0 2-.88l1.78 1.75a5.33 5.33 0 0 1-4.11 1.67c-3.09 0-5-1.87-5-4.71a4.55 4.55 0 0 1 4.88-4.78c3.3 0 5.11 2.17 4.87 5.57zm-4-6.32h-2.52l1.76-3.06 3 1zM280 115c-.82 0-1.34.63-1.51 1.56h2.91A1.41 1.41 0 0 0 280 115zM292.47 112.69v3.09c-1.77-.22-2.91.53-2.91 1.87v4.42h-3.43v-9.25h3.43v1.46a3.31 3.31 0 0 1 2.91-1.59zM302.66 118.28h-6.22a1.8 1.8 0 0 0 1.8 1.38 3 3 0 0 0 2-.88l1.78 1.75a5.33 5.33 0 0 1-4.11 1.67c-3.09 0-5-1.87-5-4.71a4.55 4.55 0 0 1 4.88-4.78c3.3 0 5.07 2.17 4.87 5.57zm-4-6.32h-2.52l1.82-3.06 3 1zm-.77 3.08c-.82 0-1.34.63-1.51 1.56h2.91a1.41 1.41 0 0 0-1.41-1.6zM307.52 115c-.42 0-.7.15-.7.44 0 1 4.83.58 4.83 3.74 0 1.9-1.65 3.06-4.06 3.06a7.4 7.4 0 0 1-4.35-1.31l1.05-2.16a6.36 6.36 0 0 0 3.35 1.14c.46 0 .76-.14.76-.42 0-1.05-4.73-.54-4.73-3.71 0-1.94 1.62-3.09 3.94-3.09a8.13 8.13 0 0 1 4.06 1.12l-1.13 2.19a7.3 7.3 0 0 0-3.02-1z"/>
  <path class="cls-4" d="M764.33 484.283l9.943-1.06.955 8.95-9.943 1.06zM784.11 491.2l-1-8.95 17.74-1.89 1 8.95zm26.6-2.84l-1-8.95 17.74-1.89 1 8.95zm26.6-2.84l-1-8.95 17.74-1.89 1 8.95zm26.6-2.84l-1-8.95 17.74-1.89 1 8.95zM889.556 470.923l9.943-1.06.954 8.948-9.943 1.062z"/>
  <path class="cls-4" d="M910.38 473l-30.73-14 3.24 33.61L910.38 473z"/>
</svg>
