<svg id="Layer_1" xmlns="http://www.w3.org/2000/svg" viewBox="0 0 93.1 65">
  <style>
    .st0{fill:#fff;}
  </style>
  <title>
    Page 1
  </title>
  <g id="Page-1_1_">
    <g id="Desktop-HD">
      <g id="Page-1">
        <path class="st0" d="M4.1 5.5c-.1.1-.1.2 0 .3s.1.2.1.2c-.2.2-.2.3-.2.3-.1.1.1.2.2.4-.1.1-.3.1-.4.1-.1 0-.2.1-.4.2-.2 0-.4.2-.4.3-.1.3-.3.4-.5.7-.3.3-.3.6-.1.9.1.2.2.4.2.6.1.1.2.3.3.6l3.5-.3c.1 0 .3 0 .4.1.1-.1.1 0 .3 0h3.7c.2-.1.4-.1.5-.1h1.5c.4-.1.6-.1 1-.2s.7 0 1.1-.1H17.8l.6-.1h.6c.1 0 .4.1.5.1.7.1 1.3 0 2-.1.8-.1 1.3-.1 2.1-.1.1 0 .3 0 .4-.1.3 0 .7 0 1.1-.1.4 0 .8 0 1.1.1.1.1.4.1.5.1s.4-.1.6-.1h.1c.1-.1.1 0 .2.1.4-.1.7 0 1.1 0h1.1c.2.1.5.1.8 0 .2-.1.5-.1.8 0 .1 0 .4.1.4.1.2.1.4.1.5.1h1.1c.4-.1.6 0 1 .2.1.1.2.1.4.1.3 0 .5-.1.7 0 .2-.1.5-.1.7-.2.3-.2.7-.2 1 .1.1.1.4.2.7.1 0-.1-.1-.2-.1-.1-.1 0-.2-.1-.3-.3.4.1.7.1 1 .1h.9c.2.1.5.1.9 0 .5.1 1.1 0 1.6.1h.9c3.4-.6 6.9-.6 10.2 0 .1-.1.2-.1.3-.1s.3.1.5.1h.4l.6.3c.1 0 .4.1.5-.1.1 0 .3 0 .5.1.2.2.4.3.7 0 .1-.1.3-.2.4-.2.3.1.6.1.9.1.3 0 .6-.1.9-.1.2.1.4 0 .6 0 .1 0 .4-.1.6 0 .1-.1.3-.2.4-.2.1 0 .4.1.4.1.3.1.5.1.8 0 .6-.2 1.1-.3 1.6-.1.1.1.2.1.4.1.1-.1.3-.2.6-.1.1.1.3.1.4.1.2-.1.4-.1.6 0 .3.1.6 0 1-.5H66c.2-.2.3-.2.5-.2.2-.1.4 0 .7 0 .2.1.4 0 .6 0h.8c.5-.1 1.1-.1 1.6-.1l1.4-.1c.1 0 .4-.1.5-.2-.1 0-.3 0-.4-.1h-.4c-.6 0-1.3 0-1.9.1s-1.3 0-1.9 0h-.1c-.6 0-1.2 0-1.8.1-.6 0-1.2 0-1.8-.1h-2.6c-.6 0-1.3 0-2-.1-.6.1-1.3.1-1.9.1-.7 0-1.3 0-2-.1-.6.1-1.3 0-1.8-.1h-.6c-.6.2-1.1.2-1.7.1-.6-.1-1.1-.1-1.8-.1.1-.1.1-.3.2-.4.4 0 1 0 1.4-.1.6.1 1.1.1 1.7.1h1.1c.4-.1.6-.1 1-.2.1-.1.4-.1.6 0 .4.2.8 0 1.1-.2-.4-.1-.8-.2-1.1-.1-.4.1-.8.1-1.1 0h-1.2c-.4.1-.8.1-1.1 0-.4-.1-.7 0-1.1 0-.4-.1-.8 0-1.1-.1v-.2c1.1 0 2.1.1 3.3 0 1.4-.1 2.9 0 4.4 0 1.6.1 3.2.1 4.7 0H67c.1 0 .2.1.4.1.4.2.6.2.9.3.1 0 .5-.1.8-.2-.1 0-.3 0-.4-.1.5 0 1 0 1.5-.1.7 0 1.3-.1 2-.2l.1-.1c.4.1.6 0 1 0h.9c.9 0 1.8-.1 2.8-.1.9 0 1.8-.1 2.8 0h7.6c.1.1.1 0 .1 0l.1-.1c-.1-.1-.1-.1-.3-.1-.1.1-.1 0-.3 0h-.6c-.2-.1-.4-.1-.6-.1h-.6c-.1 0-.2-.1-.3 0-.1 0-.2-.1-.3-.1l.4-.4c.1 0 .4-.1.6 0 .4.1.8 0 1.1 0h1.1c.4.1.6 0 .9 0s.6-.1.9-.2c-1.6-.1-3.2-.2-4.8-.2-1.6 0-3.2-.1-4.7-.2 1.2 0 2.3.1 3.5.1 1.1 0 2.2 0 3.5-.1-.4-.1-.6-.1-.6 0-.1-.1-.4-.1-.6 0-.1-.1-.2-.1-.2-.1-.1-.1-.2-.1-.4-.3.5.1.9 0 1.3 0h4.6c.1 0 .3 0 .4.1.2.1.3 0 .5-.1-.6-.1-1.2-.2-1.9-.1-.5-.1-1.1 0-1.6 0H87c-.9 0-1.8-.1-2.7-.2-.9 0-1.8-.1-2.8-.1-.4-.1-.8 0-1.1 0-.4.1-.8.1-1.1 0-.3 0-.5.1-.6.3s-.3.3-.5.2h-.8c-.1 0-.4-.1-.6 0-.2-.1-.4 0-.6 0 0-.1.1-.2.2-.2.1.1.1 0 .1-.2-.1-.1-.4-.1-.8 0H71c-.4 0-.8.1-1 .2.1.1.4.2.6.1.1 0 .4-.1.5.1l-.1.1c-.4.1-.8.1-1.1 0l-1.2.1-.1-.1-.1-.1h.3c-.1-.1 0 0 .1-.1.1.1.1-.1.1-.1h-2.8c-.4.1-.6.1-.9.1h-2.4c-.9-.1-1.6 0-2.4.1h-1.8s-1.2 0-1.8.1h-1.3c-.4.1-.7 0-1.1 0-.1 0-.3 0-.4-.1.1-.1.2-.1.5-.1h.6c.6 0 1.3.1 1.9 0H59c.1 0 .3 0 .4-.1.1.1.1 0 .2-.1-.1-.1 0-.1-.1-.2 0 0-.1.1-.1-.1l-.1-.1c-.1.1-.1-.1-.1-.1.7 0 1.4-.1 2.1 0 .8 0 1.5 0 2.1.1v.1c-.2.1-.4.1-.4.2-.1.1-.1 0-.2-.1-.4-.1-.7-.1-1-.1-.2.1-.6.2-.9.2.5.1 1 .1 1.4.1h1.5c.1-.1.2-.2.3-.4.1-.1.2-.1.4-.1.1.1 0 .3-.1.5.1.1.2.1.5.1l2.3-.1c.4 0 .9 0 1.4.1.2-.1.4-.1.5-.1s.3 0 .4-.2l.2-.4c.1-.1.1 0 .3 0 0-.6.5-.6 1-.5h1.5c.1.2 0 .4-.1.4s-.4-.1-.6-.1h-.1c-.1-.1-.1-.1-.1 0-.4.1-.7 0-1.1 0-.4-.1-.7-.1-1.1-.2.1.1.1.1.1.2 0 0 0 .1.1.2.1 0 .1 0 .2.1h.1c.4 0 .8 0 1.1.1.4-.1.7 0 1.1 0h1.1c.1 0 .4-.1.6-.2l.1-.1c-.1 0-.2-.1-.2-.1l-.1-.1c-.1.2-.2.4-.3.3-.1 0-.1 0-.2-.1-.2-.3-.5-.5-1-.4h-.4c-.9-.1-1.6-.1-2.3-.1l-2.3.1-4.1-.1c-.3 0-.5.1-.8.1s-.5.1-.8 0c-.6.1-1.3 0-1.8.1-.6 0-1.2 0-1.8-.1l-2.3.1c-.7 0-1.4.1-2.2 0-.4-.1-.8 0-1.1 0-.4-.1-.8 0-1.2 0-.2 0-.4-.1-.6-.1-.3 0-.7 0-1-.1h-1.6c-1.7 0-3.4 0-5-.2-.1 0-.1 0-.1.1.1.1.2.2.3.1.1.1 0 .1 0 .3-.9 0-1.9-.1-2.8-.2-1.1 0-2.1-.1-3.1-.2-.6 0-1.3-.1-1.9-.1-.6 0-1.3-.1-1.8-.2-.4-.1-.7-.1-1.1 0h-1c-.1 0-.1 0-.2-.1 0 0-.1-.1-.1 0 .1-.1.3-.2.4-.2.5.1 1.1 0 1.6.1h1.6c.4.1.6 0 .9 0h.9c.6 0 1.3.1 1.9.1.6 0 1.2 0 1.8.1.4.1.6 0 .9 0h.9l.3-.1h-.1c-.2-.2-.5-.2-.7-.3-.3 0-.5-.1-.7 0-.8 0-1.5-.2-2.3-.2s-1.5-.2-2.3-.2c-1.1 0-2-.1-3-.2h-2.8c-.4-.1-.8 0-1.2 0h-1.2c-.6 0-1.1-.1-1.6 0h-1.6c-1.5.1-2.9.2-4.3.4l-4.2.3c-1.2 0-2.6.3-4 .6-.5.1-1.1.3-1.6.3-.6.2-1.1.3-1.6.3-.6.1-1.3.2-1.9.3-.3.2-.6.3-.8.5-.1.1-.2.1-.3.2-.1-.1-.3 0-.4 0h-.4c-.2.1-.4.1-.5.1s-.2.1-.4.1c-.1 0-.2 0-.2.3zm78.4.3c.6 0 1 .1 1.2.2.1.1-.1.1-.3.2h-.3c-.1.1-.4.1-.6 0s-.4-.1-.6 0h-.3c-.2-.2-.6-.3-.8-.2-.3 0-.5-.1-.9-.1h-.6c1.6-.2 2.6-.1 3.2-.1zm1.3-1.2c.1 0 .4.1.6.2-.2.1-.4.1-.4 0-.1.1-.3 0-.6 0 .1-.1.3-.2.4-.2zM66 3.7c.5-.1.9-.1 1.3 0v.1c-.4-.1-.9-.1-1.3 0-.4 0-.9 0-1.4.1v-.3c.5 0 1 .1 1.4.1zM47.8 8.2v-.4c.1.1.1 0 .2.1v.4c-.1-.1-.2-.1-.2-.1zM65 4.6c.1 0 .5.1.7.1l-.7.1c-.3 0-.5.1-.8.1v-.1c.2-.1.5-.1.8-.2zm-3.5.1c.1 0 .4.1.6.1-.2.1-.4.1-.5.1-.2-.1-.4 0-.6-.1.2-.1.4-.1.5-.1zm-7.6.6h2.3c.5.1 1 .1 1.4.1h1.3c.9 0 1.8.1 2.8 0 .9 0 1.9 0 2.8.1l3.2-.2c.4.1.7 0 1.1 0h1.5c.2-.1.4 0 .6-.1.5.1.9 0 1.3 0s.8 0 1.4-.1c.6 0 1.3.1 1.8.1l2-.1h.3c.1-.1.2-.1.3 0 .1 0 .2-.1.4-.1.1 0 .2.1.3.3-.1.1-.1 0-.3 0-.1-.1-.2-.1-.4-.1h-2.9c-.9.1-1.8.1-2.8 0l-5.5.2c-.8.1-1.6.1-2.3.1h-2.3c-.8.1-1.6.1-2.4.1-.8 0-1.6 0-2.4-.1-.4-.1-.6 0-1 .2-.5.1-1.1.1-1.7-.1-.2-.1-.5-.1-.8 0-.4.1-.6 0-.9 0-.2-.1-.4-.1-.7-.1s-.5.1-.8.1c-.5-.1-1-.1-1.6-.1-.2.1-.3 0-.5.1 0-.1 0-.3.1-.4H50.7c.4.1.6 0 .8 0 .9.1 1.7.1 2.4.1zm.1-1.7c1.3.1 2.4.1 3.6.1l-.2.2c-.2.1-.4 0-.6 0-.3-.1-.7-.1-1.1-.1-.3 0-.7 0-1.1.1-.2.1-.4.1-.6 0-.2-.1-.5-.1-.8-.1s-.5-.1-.7 0c-.1 0-.1 0-.2.1-.1 0-.1 0-.2.1 0 .1-.1.2-.1.5-.4-.1-.7 0-1 0s-.6 0-.9-.2c.2-.1.3-.2.4-.2h.3c.1 0 .2-.1.3-.3-.1 0-.2-.1-.3-.1-.1-.1-.1-.1-.3-.1 1.2-.1 2.4-.1 3.5 0zm-5.9 1.6v.4c-.1-.1-.2-.1-.4-.1 0-.1 0-.3.1-.4.1 0 .1.1.3.1zm-2.8 2.6c.1.1 0 .1 0 .1.1.1 0 .1 0 .1-.1-.1-.1 0-.3 0 0-.1.1-.2 0-.3.1.1.3.1.3.1zm2-4.4c-.1.1 0 .1-.1.2h-.3v-.3c.1.1.3.1.4.1zm-1.8 1.8c-.1.1 0 .1-.1.2-.1 0-.2.1-.3 0s-.1-.2 0-.3c.2 0 .3.1.4.1zm0-1.9v.3c-.1 0-.2.1-.4.1 0-.1.1-.2 0-.3.2-.1.4-.1.4-.1zm-2.6 4.4c.1.1 0 .1 0 .1-.2-.1-.4-.1-.6 0-.4 0-.9 0-1.4-.1.6 0 1.3.1 2 0zm-2.3-2.8c.8 0 1.7.1 2.5.1 0 .1 0 .3-.1.4h-.6c-.6 0-1.1-.1-1.6-.2s-1.1 0-1.6-.1-1.1 0-1.5-.2l-.4.1.1-.3c1.2.2 2.3.2 3.2.2zM28.4 2.5h.1c.1 0 .1 0 .2.1h.7v.1c-.2-.1-.4-.1-.6 0h-.6l-.1-.1c.1 0 .2 0 .3-.1zm-1.5 0c.2.1.3.1.4.1l.1.1-.1.1c-.2-.1-.5-.1-.8 0v-.1c.1-.2.3-.2.4-.2zm-3.5 1c.1.1.2.1.4.2h-.6c.1-.2.2-.2.2-.2z"/>
        <path class="st0" d="M40.3 7.8c.1-.1.3-.2.4 0h-.4zM43.4 5c.1.1.1.1.2.1-.1.1-.1.2-.1.4-.1-.1-.1 0-.2-.1.1-.2.1-.3.1-.4zM71.8 4.7h-.2v-.1zM72.5 4.6l.2-.1v.1s-.1.1-.2.1v-.1zM75.2 4.6l.1.1-.6-.1zM79.3 4.5v.1c-.1-.1 0 0-.1.1h-.1l-.1-.1.1-.1h.2zM39.9 3.9c-.1 0-.2.1-.1.1l-.1-.1-.1-.1.3.1zM42.2 3.9V4c-.1-.1-.2-.1-.4-.1h.4zM47.2 4.7c-.1.1-.1 0-.3 0 .1-.1.1-.1 0-.1h.3c.1 0 0 .1 0 .1zM48.1 4.3c-.1.2-.2.2-.3.2l-.1-.1s-.1-.1 0-.1h.4zM47.7 7.2v-.1c.1 0 .2-.1.3 0s0 .1.1.2c-.1 0-.3 0-.4-.1zM44 7.8c.1-.1.1 0 .2-.1V8c-.1-.1-.1 0-.2-.2zM43.5 7.8v.1h-.3c.1-.1 0-.1 0-.1.2 0 .2-.1.3 0zM44.6 4.3v-.2l.1.1zM45.6 4.7c-.1 0-.3 0-.4-.1l-.1-.1h.4c0 .1 0 .1.1.2zM44.5 5.1v.3-.3zM44.4 5.1v.1l-.1.1-.1-.4c.1.2.1.2.2.2zM44.5 8l-.1-.2c.1-.1.1 0 .1 0 0 .1.1.2 0 .2zM47.2 5.2c0 .1 0 .3.1.4-.1 0-.1 0-.2-.1 0 0-.1-.1 0-.1-.1-.1-.1-.1 0-.1l.1-.1zM47.8 4.7h.3c-.2-.1-.2-.1-.3 0zM43.5 4.1c.1.1.1.1 0 0 .1.1.1.1 0 .1v-.1zM43.2 4s-.1.1 0 .1c-.1-.1-.1-.1-.3-.1.1.1.2 0 .3 0zM68.1 3.7c.1 0 .1 0 0 0 0 .1 0 .1 0 0zM81 4.6l-.1-.1zM37.4 3.8c.1-.1.1 0 0 0zM33.5 3.6l-.2-.1.2.1c.1 0 .1 0 0 0z"/>
      </g>
    </g>
  </g>
  <title>
    Page 1
  </title>
  <g id="Page-1_2_">
    <g id="Desktop-HD_1_">
      <g id="Page-1_3_">
        <path class="st0" d="M4.1 31.8c-.1.1-.1.2 0 .3s.1.2.1.2c-.2.2-.2.4-.2.4-.1.1.1.2.2.4-.1.1-.2.1-.4.1-.1 0-.2.1-.4.2-.2 0-.4.2-.4.2-.1.3-.3.4-.5.7-.3.3-.3.6-.1.9.1.2.2.4.2.6.1.1.2.3.3.6l3.5-.1c.1 0 .3 0 .4.1.1-.1.1 0 .3 0h3.7c.2-.1.4-.1.5-.1h1.5c.4-.1.6-.1 1-.2s.7 0 1.1-.1H17.8l.6-.1h.6c.1 0 .4.1.5.1.7.1 1.3 0 2-.1.8-.1 1.3-.1 2.1-.1.1 0 .3 0 .4-.1.3 0 .7 0 1.1-.1.4 0 .8 0 1.1.1.1.1.4.1.5.1s.4-.1.6-.1h.1c.1-.1.1 0 .2.1.4-.1.7 0 1.1 0h1.1c.2.1.5.1.8 0 .2-.1.5-.1.8 0 .1 0 .4.1.4.1.2.1.4.1.5.1h1.1c.4-.1.6 0 1 .2.1.1.2.1.4.1.3 0 .5-.1.7 0 .2-.1.5-.1.7-.2.3-.2.7-.2 1 .1.1.1.4.2.7.1 0-.1-.1-.2-.1-.1-.1 0-.2-.1-.3-.3.4.1.7.1 1 .1h.9c.2.1.5.1.9 0 .5.1 1.1 0 1.6.1h.9c3.4-.6 6.9-.6 10.2 0 .1-.1.2-.1.3-.1s.3.1.5.1h.4l.6.3c.1 0 .4.1.5-.1.1 0 .3 0 .5.1.2.2.4.3.7 0 .1-.1.3-.2.4-.2.3.1.6.1.9.1.3 0 .6-.1.9-.1.2.1.4 0 .6 0 .1 0 .4-.1.6 0 .1-.1.3-.2.4-.2.1 0 .4.1.4.1.3.1.5.1.8 0 .6-.2 1.1-.3 1.6-.1.1.1.2.1.4.1.1-.1.3-.2.6-.1.1.1.3.1.4.1.2-.1.4-.1.6 0 .3.1.6 0 1-.5H66c.2-.2.3-.2.5-.2.2-.1.4 0 .7 0 .2.1.4 0 .6 0h.8c.5-.1 1.1-.1 1.6-.1l1.4-.1c.1 0 .4-.1.5-.2-.1 0-.3 0-.4-.1h-.4c-.6 0-1.3 0-1.9.1s-1.3 0-1.9 0h-.1c-.6 0-1.2 0-1.8.1-.6 0-1.2 0-1.8-.1h-2.6c-.6 0-1.3 0-2-.1-.6.1-1.3.1-1.9.1-.7 0-1.3 0-2-.1-.6.1-1.3 0-1.8-.1h-.6c-.6.2-1.1.2-1.7.1s-1.1-.1-1.8-.1c.1-.1.1-.3.2-.4.4 0 1 0 1.4-.1.6.1 1.1.1 1.7.1h1.1c.4-.1.6-.1 1-.2.1-.1.4-.1.6 0 .4.2.8 0 1.1-.2-.4-.1-.8-.2-1.1-.1-.4.1-.8.1-1.1 0h-1.2c-.4.1-.8.1-1.1 0-.4-.1-.7 0-1.1 0-.4-.1-.8 0-1.1-.1v-.2c1.1 0 2.1.1 3.3 0 1.4-.1 2.9 0 4.4 0 1.6.1 3.2.1 4.7 0H67c.1 0 .2.1.4.1.4.2.6.2.9.3.1 0 .5-.1.8-.2-.1 0-.3 0-.4-.1.5 0 1 0 1.5-.1.7 0 1.3-.1 2-.2l.1-.1c.4.1.6 0 1 0h.9c.9 0 1.8-.1 2.8-.1.9 0 1.8-.1 2.8 0h7.6c.1.1.1 0 .1 0l.1-.1c-.1-.1-.1-.1-.3-.1-.1.1-.1 0-.3 0h-.6c-.2-.1-.4-.1-.6-.1h-.6c-.1 0-.2-.1-.3 0-.1 0-.2-.1-.3-.1l.4-.4c.1 0 .4-.1.6 0 .4.1.8 0 1.1 0h1.1c.4.1.6 0 .9 0s.6-.1.9-.2c-1.6-.1-3.2-.2-4.8-.2-1.6 0-3.2-.1-4.7-.2 1.2 0 2.3.1 3.5.1 1.1 0 2.2 0 3.5-.1-.4-.1-.6-.1-.6 0-.1-.1-.4-.1-.6 0-.1-.1-.2-.1-.2-.1-.1-.1-.2-.1-.4-.3.5.1.9 0 1.3 0h4.6c.1 0 .3 0 .4.1.2.1.3 0 .5-.1-.6-.1-1.2-.2-1.9-.1-.5-.1-1.1 0-1.6 0H87c-.9 0-1.8-.1-2.7-.2-.9 0-1.8-.1-2.8-.1-.4-.1-.8 0-1.1 0-.4.1-.8.1-1.1 0-.3 0-.5.1-.6.3-.1.2-.3.3-.5.2h-.8c-.1 0-.4-.1-.6 0-.2-.1-.4 0-.6 0 0-.1.1-.2.2-.2.1.1.1 0 .1-.2-.1-.1-.4-.1-.8 0H71c-.4 0-.8.1-1 .2.1.1.4.2.6.1.1 0 .4-.1.5.1l-.1.1c-.4.1-.8.1-1.1 0l-1.2.1-.1-.1-.1-.1h.3c-.1-.1 0 0 .1-.1.1.1.1-.1.1-.1h-2.8c-.7-.5-1-.5-1.3-.5h-2.4c-.9-.1-1.6 0-2.4.1h-1.8s-1.2 0-1.8.1h-1.3c-.4.1-.7 0-1.1 0-.1 0-.3 0-.4-.1.1-.1.2-.1.5-.1h.6c.6 0 1.3.1 1.9 0h1.9c.1 0 .3 0 .4-.1.1.1.1 0 .2-.1-.1-.1 0-.1-.1-.2 0 0-.1.1-.1-.1l-.1-.1c-.1.1-.1-.1-.1-.1.7 0 1.4-.1 2.1 0 .8 0 1.5 0 2.1.1v.1c-.2.1-.4.1-.4.2-.1.1-.1 0-.2-.1-.4-.1-.7-.1-1-.1-.2.1-.6.2-.9.2.5.1 1 .1 1.4.1h1.5c.1-.1.2-.2.3-.4.1-.1.2-.1.4-.1.1.1 0 .3-.1.5.1.1.2.1.5.1l2.3-.1c.4 0 .9 0 1.4.1.2-.1.4-.1.5-.1s.3 0 .4-.2l.2-.4c.1-.1.1 0 .3 0 .5-.1 1.1-.1 1.6-.1h1.5c.1.2 0 .4-.1.4s-.4-.1-.6-.1h-.1c-.1-.1-.1-.1-.1 0-.4.1-.7 0-1.1 0-.4-.1-.7-.1-1.1-.2.1.1.1.1.1.2 0 0 0 .1.1.2.1 0 .1 0 .2.1h.1c.4 0 .8 0 1.1.1.4-.1.7 0 1.1 0h1.1c.1 0 .4-.1.6-.2l.1-.1c-.1 0-.2-.1-.2-.1l-.1-.1c-.1.2-.2.4-.3.3-.1 0-.1 0-.2-.1-.2-.3-.5-.5-1-.4h-.4c-.9-.1-1.6-.1-2.3-.1l-2.3.1-4.1-.1c-.3 0-.5.1-.8.1s-.5.1-.8 0c-.6.1-1.3 0-1.8.1-.6 0-1.2 0-1.8-.1l-2.3-.1c-.7 0-1.4.1-2.2 0-.4-.1-.8 0-1.1 0-.4-.1-.8 0-1.2 0-.2 0-.4-.1-.6-.1-.3 0-.7 0-1-.1H48c-1.7 0-3.4 0-5-.2-.1 0-.1 0-.1.1.1.1.2.2.3.1.1.1 0 .1 0 .3-.9 0-1.9-.1-2.8-.2-1.1 0-2.1-.1-3.1-.2-.6 0-1.3-.1-1.9-.1-.6 0-1.3-.1-1.8-.2-.4-.1-.7-.1-1.1 0h-1c-.1 0-.1 0-.2-.1 0 0-.1-.1-.1 0 .1-.1.3-.2.4-.2.5.1 1.1 0 1.6.1h1.6c.4.1.6 0 .9 0h.9c.6 0 1.3.1 1.9.1.6 0 1.2 0 1.8.1.4.1.6 0 .9 0h.9l.3-.1h-.1c-.3-.1-.6-.1-.8-.2-.3 0-.5-.1-.7 0-.8 0-1.5-.2-2.3-.2s-1.5-.2-2.3-.2c-1.1 0-2-.1-3-.2h-2.8c-.4-.1-.8 0-1.2 0H28c-.6 0-1.1-.1-1.6 0h-1.6c-1.5.1-2.9.2-4.3.4l-4.2.3c-1.2.1-2.5.4-3.9.7-.5.1-1.1.3-1.6.3-.8.3-1.3.4-1.8.4-.6.1-1.3.2-1.9.3-.3.2-.6.3-.8.5-.1.1-.2.1-.3.2-.1-.1-.3 0-.4 0h-.4c-.2.1-.4.1-.5.1s-.2.1-.4.1c-.1-.1-.2 0-.2.2zm78.4.3c.6 0 1 .1 1.2.2.1.1-.1.1-.3.2h-.3c-.1.1-.4.1-.6 0-.2-.1-.4-.1-.6 0h-.3c-.2-.2-.6-.3-.8-.2-.3 0-.5-.1-.9-.1h-.6c1.6-.1 2.6 0 3.2-.1zm1.3-1.1c.1 0 .4.1.6.2-.2.1-.4.1-.4 0-.1.1-.3 0-.6 0 .1-.2.3-.2.4-.2zM66 30.1c.5-.1.9-.1 1.3 0v.1c-.4-.1-.9-.1-1.3 0-.4 0-.9 0-1.4.1V30c.5 0 1 .1 1.4.1zm-18.2 4.5v-.4c.1.1.1 0 .2.1v.4c-.1-.1-.2-.1-.2-.1zM65 31c.1 0 .5.1.7.1H65c-.3 0-.5.1-.8.1v-.1c.2-.1.5-.1.8-.1zm-3.5.1c.1 0 .4.1.6.1-.2.1-.4.1-.5.1-.2-.1-.4-.1-.6-.1.2-.1.4-.1.5-.1zm-7.6.6h2.3c.5.1 1 .1 1.4.1h1.3c.9 0 1.8.1 2.8 0 .9 0 1.9 0 2.8.1l3.2-.2c.4.1.7 0 1.1 0h1.5c.2-.1.4 0 .6-.1.5.1.9 0 1.3 0s.8 0 1.4-.1c.6 0 1.3.1 1.8.1l2-.1h.3c.1-.1.2-.1.3 0 .1 0 .2-.1.4-.1.1 0 .2.1.3.3-.1.1-.1 0-.3 0-.1-.1-.2-.1-.4-.1h-2.9c-.9.1-1.8.1-2.8 0l-5.5.2c-.8.1-1.6.1-2.3.1h-2.3c-.8.1-1.6.1-2.4.1-.8 0-1.6 0-2.4-.1-.4-.1-.6 0-1 .2-.5.1-1.1.1-1.7-.1-.2-.1-.5-.1-.8 0-.4.1-.6 0-.9 0-.2-.1-.4-.1-.7-.1s-.5.1-.8.1c-.5-.1-1-.1-1.6-.1-.2.1-.3 0-.5.1 0-.1 0-.3.1-.4H50.7c.4.1.6 0 .8 0 .9 0 1.7.1 2.4.1zM54 30c1.3.1 2.4.1 3.6.1l-.2.2c-.2.1-.4 0-.6 0-.4-.1-.7-.1-1.1-.1-.3 0-.7 0-1.1.1-.2.1-.4.1-.6 0-.3-.1-.6-.1-.9-.1-.3 0-.5-.1-.7 0-.1 0-.1 0-.2.1-.1 0-.1 0-.2.1 0 .1-.1.2-.1.5-.4-.1-.7 0-1 0s-.6 0-.9-.2c.2-.1.3-.2.4-.2h.3c.1 0 .2-.1.3-.3-.1 0-.2-.1-.3-.1-.1-.1-.1-.1-.3-.1 1.3-.1 2.5-.1 3.6 0zm-5.9 1.6v.4c-.1-.1-.2-.1-.4-.1 0-.1 0-.3.1-.4.1 0 .1.1.3.1zm-2.8 2.6c.1.1 0 .1 0 0 .1.2 0 .2 0 .2-.1-.1-.1 0-.3 0 0-.1.1-.2 0-.3.1.1.3.1.3.1zm2-4.4c-.1.1 0 .1-.1.2h-.3v-.3c.1.1.3.1.4.1zm-1.8 1.7c-.1.1 0 .1-.1.2-.1 0-.2.1-.3 0s-.1-.2 0-.3c.2.1.3.1.4.1zm0-1.9v.3c-.1 0-.2.1-.4.1 0-.1.1-.2 0-.3.2 0 .4 0 .4-.1zm-2.6 4.5c.1.1 0 .1 0 0-.2 0-.4 0-.6.1-.4 0-.9 0-1.4-.1h2zm-2.3-2.9c.8 0 1.7.1 2.5.1 0 .1 0 .3-.1.4h-.6c-.6 0-1.1-.1-1.6-.2s-1.1 0-1.6-.1-1.1 0-1.5-.2l-.4.1.1-.3c1.2.2 2.3.3 3.2.2zm-12.2-2.3h.1c.1 0 .1 0 .2.1h.7v.1c-.2-.1-.4-.1-.6 0h-.6l-.1-.1c.1 0 .2-.1.3-.1zm-1.5-.1c.2.1.3.1.4.1l.1.1-.1.1c-.2-.1-.5-.1-.8 0V29c.1-.1.3-.1.4-.2zm-3.5 1c.1.1.2.1.4.2h-.6l.2-.2z"/>
        <path class="st0" d="M40.3 34.1c.1-.1.3-.2.4 0h-.4zM43.4 31.3c.1.1.1.1.2.1-.1.1-.1.2-.1.4-.1-.1-.1 0-.2-.1.1-.1.1-.2.1-.4zM71.8 31v.1h-.2V31zM72.5 30.9l.2-.1v.1s-.1.1-.2.1v-.1zM75.2 31l.1.1-.6-.1zM79.3 30.8v.1c-.1-.1 0 0-.1.1h-.1l-.1-.1.1-.1h.2zM39.9 30.3c-.1 0-.2.1-.1.1l-.1-.1-.1-.1.3.1zM42.2 30.3v.1c-.1-.1-.2-.1-.4-.1h.4zM47.2 31.1c-.1.1-.1 0-.3 0 .1-.1.1-.1 0-.1h.3c.1 0 0 .1 0 .1zM48.1 30.7c-.1.2-.2.2-.3.2l-.1-.1s-.1-.1 0-.1h.4zM47.7 33.6c.1-.1.2-.2.3-.1s0 .1.1.2c-.1-.1-.3-.1-.4-.1zM44 34.2c.1-.1.1 0 .2-.1v.3c-.1-.1-.1 0-.2-.1v-.1zM43.5 34.2c-.1.1-.1.1-.3.1.1-.1 0-.1 0-.1.2 0 .2-.1.3 0zM44.6 30.7v-.2l.1.1zM45.6 31c-.1 0-.3 0-.4-.1l-.1-.1h.4c0 .2 0 .2.1.2zM44.5 31.4v.3-.3zM44.4 31.4v.1l-.1.1-.1-.4c.1.2.1.2.2.2zM44.5 34.4l-.1-.2c.1-.1.1 0 .1 0 0 .1.1.1 0 .2zM47.2 31.6c0 .1 0 .3.1.4-.1 0-.1 0-.2-.1 0 0-.1-.1 0-.1-.1-.1-.1-.1 0-.1l.1-.1zM47.8 31h.3-.3zM43.5 30.5c.1.1.1.1 0 0 .1.1.1.1 0 .1v-.1zM43.2 30.4s-.1.1 0 .1c-.1-.1-.1-.1-.3-.1h.3zM68.1 30.1c.1 0 .1 0 0 0 0 .1 0 .1 0 0zM81 31l-.1-.1zM37.4 30.2c.1-.1.1 0 0 0zM33.5 29.9l-.2-.1.2.1c.1 0 .1 0 0 0z"/>
      </g>
    </g>
  </g>
  <title>
    Page 1
  </title>
  <g id="Page-1_4_">
    <g id="Desktop-HD_2_">
      <g id="Page-1_5_">
        <path class="st0" d="M4.1 59.4c-.1.1-.1.2 0 .3s.1.2.1.2c-.2.2-.2.4-.2.4-.1.1.1.2.2.4-.1.1-.2.1-.4.1-.1 0-.2.1-.4.2-.2 0-.4.1-.4.2-.1.3-.3.4-.5.7-.3.3-.3.6-.1.9.1.2.2.4.2.6.1.1.2.3.3.6l3.5-.1c.1 0 .3 0 .4.1.1-.1.1 0 .3 0h3.7c.2-.1.4-.1.5-.1h1.5c.4-.1.6-.1 1-.2s.7 0 1.1-.1H17.8l.6-.1h.6c.1 0 .4.1.5.1.7.1 1.3 0 2-.1.8-.1 1.3-.1 2.1-.1.1 0 .3 0 .4-.1.3 0 .7 0 1.1-.1.4 0 .8 0 1.1.1.1.1.4.1.5.1s.4-.1.6-.1h.1c.1-.1.1 0 .2.1.4-.1.7 0 1.1 0h1.1c.2.1.5.1.8 0 .2-.1.5-.1.8 0 .1 0 .4.1.4.1.2.1.4.1.5.1h1.1c.4-.1.6 0 1 .2.1.1.2.1.4.1.3 0 .5-.1.7 0 .2-.1.5-.1.7-.2.3-.2.7-.2 1 .1.1.1.4.2.7.1 0-.1-.1-.2-.1-.1-.1 0-.2-.1-.3-.3.4.1.7.1 1 .1h.9c.2.1.5.1.9 0 .5.1 1.1 0 1.6.1h.9c3.4-.6 6.9-.6 10.2 0 .1-.1.2-.1.3-.1s.3.1.5.1h.4l.6.3c.1 0 .4.1.5-.1.1 0 .3 0 .5.1.2.2.4.3.7 0 .1-.1.3-.2.4-.2.3.1.6.1.9.1.3 0 .6-.1.9-.1.2.1.4 0 .6 0 .1 0 .4-.1.6 0 .1-.1.3-.2.4-.2.1 0 .4.1.4.1.3.1.5.1.8 0 .6-.2 1.1-.3 1.6-.1.1.1.2.1.4.1.1-.1.3-.2.6-.1.1.1.3.1.4.1.2-.1.4-.1.6 0 .3.1.6 0 1-.5H66c.2-.2.3-.2.5-.2.2-.1.4 0 .7 0 .2.1.4 0 .6 0h.8c.5-.1 1.1-.1 1.6-.1l1.4-.1c.1 0 .4-.1.5-.2-.1 0-.3 0-.4-.1h-.4c-.6 0-1.3 0-1.9.1s-1.3 0-1.9 0h-.1c-.6 0-1.2 0-1.8.1-.6 0-1.2 0-1.8-.1h-2.6c-.6 0-1.3 0-2-.1-.6.1-1.3.1-1.9.1-.7 0-1.3 0-2-.1-.6.1-1.3 0-1.8-.1h-.6c-.6.2-1.1.2-1.7.1s-1.1-.1-1.8-.1c.1-.1.1-.3.2-.4.4 0 1 0 1.4-.1.6.1 1.1.1 1.7.1h1.1c.4-.1.6-.1 1-.2.1-.1.4-.1.6 0 .4.2.8 0 1.1-.2-.4-.1-.8-.2-1.1-.1-.4.1-.8.1-1.1 0h-1.2c-.4.1-.8.1-1.1 0-.4-.1-.7 0-1.1 0-.4-.1-.8 0-1.1-.1v-.2c1.1 0 2.1.1 3.3 0 1.4-.1 2.9 0 4.4 0 1.6.1 3.2.1 4.7 0H67c.1 0 .2.1.4.1.4.2.6.2.9.3.1 0 .5-.1.8-.2-.1 0-.3 0-.4-.1.5 0 1 0 1.5-.1.7 0 1.3-.1 2-.2l.1-.1c.4.1.6 0 1 0h.9c.9 0 1.8-.1 2.8-.1.9 0 1.8-.1 2.8 0h7.6c.1.1.1 0 .1 0l.1-.1c-.4-.3-.5-.4-.6-.4-.1.1-.1 0-.3 0h-.6c-.2-.1-.4-.1-.6-.1l-.5.1c-.1 0-.2-.1-.3 0-.1 0-.2-.1-.3-.1l.4-.4c.1 0 .4-.1.6 0 .4.1.8 0 1.1 0h1.1c.4.1.6 0 .9 0s.6-.1.9-.2c-1.6-.1-3.2-.2-4.8-.2-1.6 0-3.2-.1-4.7-.2 1.2 0 2.3.1 3.5.1 1.1 0 2.2 0 3.5-.1-.4-.1-.6-.1-.6 0-.1-.1-.4-.1-.6 0-.1-.1-.2-.1-.2-.1-.1-.1-.2-.1-.4-.3.5.1.9 0 1.3 0H91c.1 0 .3 0 .4.1.2.1.3 0 .5-.1-.6-.1-1.2-.2-1.9-.1-.5-.1-1.1 0-1.6 0h-1.6c-.9 0-1.8-.1-2.7-.2-.9 0-1.8-.1-2.8-.1-.4-.1-.8 0-1.1 0-.4.1-.8.1-1.1 0-.3 0-.5.1-.6.3s-.3.3-.5.2h-.8c-.1 0-.4-.1-.6 0-.2-.1-.4 0-.6 0 0-.1.1-.2.2-.2.1.1.1 0 .1-.2-.1-.1-.4-.1-.8 0h-4.7c-.4 0-.8.1-1 .2.1.1.4.2.6.1.1 0 .4-.1.5.1l-.1.1c-.4.1-.8.1-1.1 0l-1.2.1-.1-.1-.1-.1h.3c-.1-.1 0 0 .1-.1.1.1.1-.1.1-.1H66c-.4.1-.6.1-.9.1h-2.4c-.9-.1-1.6 0-2.4.1h-1.8s-1.2 0-1.8.1h-1.3c-.4.1-.7 0-1.1 0-.1 0-.3 0-.4-.1.1-.1.2-.1.5-.1h.6c.6 0 1.3.1 1.9 0h1.9c.1 0 .3 0 .4-.1.1.1.1 0 .2-.1-.1-.1 0-.1-.1-.2 0 0-.1.1-.1-.1l-.1-.1c-.1.1-.1-.1-.1-.1.7 0 1.4-.1 2.1 0 .8 0 1.5 0 2.1.1v.1c-.2.1-.4.1-.4.2-.1.1-.1 0-.2-.1-.4-.1-.7-.1-1-.1-.2.1-.6.2-.9.2.5.1 1 .1 1.4.1h1.5c.1-.1.2-.2.3-.4.1-.1.2-.1.4-.1.1.1 0 .3-.1.5.1.1.2.1.5.1l2.3-.1c.4 0 .9 0 1.4.1.2-.1.4-.1.5-.1s.3 0 .4-.2l.2-.4c.1-.1.1 0 .3 0 .5-.1 1.1-.1 1.6-.1h1.5c.1.2 0 .4-.1.4s-.4-.1-.6-.1h-.1c-.1-.1-.1-.1-.1 0-.4.1-.7 0-1.1 0-.4-.1-.7-.1-1.1-.2.1.1.1.1.1.2 0 0 0 .1.1.2.1 0 .1 0 .2.1h.1c.4 0 .8 0 1.1.1.4-.1.7 0 1.1 0h1.1c.1 0 .4-.1.6-.2l.1-.1c-.1 0-.2-.1-.2-.1l-.1-.1c-.1.2-.2.4-.3.3-.1 0-.1 0-.2-.1-.2-.3-.5-.5-1-.4h-.4c-.9-.1-1.6-.1-2.3-.1l-2.3.1-4.3-.6c-.3 0-.5.1-.8.1s-.5.1-.8 0c-.6.1-1.3 0-1.8.1-.6 0-1.2 0-1.8-.1l-2.3.1c-.7 0-1.4.1-2.2 0-.4-.1-.8 0-1.1 0-.4-.1-.8 0-1.2 0-.2-.2-.3-.2-.5-.2-.3 0-.7 0-1-.1h-1.6c-1.7 0-3.4 0-5-.2-.1 0-.1 0-.1.1.1.1.2.2.3.1.1.1 0 .1 0 .3-.9 0-1.9-.1-2.8-.2-1.1 0-2.1-.1-3.1-.2-.6 0-1.3-.1-1.9-.1-.6 0-1.3-.1-1.8-.2-.4-.1-.7-.1-1.1 0h-1c-.1 0-.1 0-.2-.1 0 0-.1-.1-.1 0 .1-.1.3-.2.4-.2.5.1 1.1 0 1.6.1h1.6c.4.1.6 0 .9 0h.9c.6 0 1.3.1 1.9.1.6 0 1.2 0 1.8.1.4.1.6 0 .9 0h.9l.3-.1h-.1c-.3-.1-.6-.1-.8-.2-.3 0-.5-.1-.7 0-.8 0-1.5-.2-2.3-.2s-1.5-.2-2.3-.2c-1.1 0-2-.1-3-.2h-2.8c-.4-.1-.8 0-1.2 0h-1.2c-.6 0-1.1-.1-1.6 0h-1.6c-1.5.1-2.9.2-4.3.4l-4.2.3c-1.2.1-2.5.4-3.9.7-.5.1-1.1.3-1.6.3-.9.2-1.4.3-1.9.4-.6.1-1.3.2-1.9.3-.3.2-.6.3-.8.5-.1.1-.2.1-.3.2-.1-.1-.3 0-.4 0h-.4c-.2.1-.4.1-.5.1s-.2.1-.4.1c-.1-.1-.2 0-.2.2zm78.4.3c.6 0 1 .1 1.2.2.1.1-.1.1-.3.2h-.3c-.1.1-.4.1-.6 0s-.4-.1-.6 0h-.3c-.2-.2-.6-.3-.8-.2-.3 0-.5-.1-.9-.1h-.6c1.6-.1 2.6-.1 3.2-.1zm1.3-1.1c.1 0 .4.1.6.2-.2.1-.4.1-.4 0-.1.1-.3 0-.6 0 .1-.2.3-.3.4-.2zm-17.8-1c.5-.1.9-.1 1.3 0v.1c-.4-.1-.9-.1-1.3-.1-.4.1-.9.1-1.4.2v-.3c.5.1 1 .2 1.4.1zm-18.2 4.6v-.4c.1.1.1 0 .2.1v.4c-.1-.2-.2-.1-.2-.1zM65 58.6c.1 0 .5.1.7.1l-.7-.1c-.3.1-.5.2-.8.2v-.1c.2-.1.5-.1.8-.1zm-3.5.1c.1 0 .4.1.6.1-.2.1-.4.1-.5.1-.2-.1-.4-.1-.6-.1.2-.1.4-.1.5-.1zm-7.6.5h2.3c.5.1 1 .1 1.4.1h1.3c.9 0 1.8.1 2.8 0 .9 0 1.9 0 2.8.1l3.2-.2c.4.1.7 0 1.1 0h1.5c.2-.1.4 0 .6-.1.5.1.9 0 1.3 0s.8 0 1.4-.1c.6 0 1.3.1 1.8.1l2-.1h.3c.1-.1.2-.1.3 0 .1 0 .2-.1.4-.1.1 0 .2.1.3.3-.1.1-.1 0-.3 0-.1-.1-.2-.1-.4-.1h-2.9c-.9.1-1.8.1-2.8 0l-5.5.2c-.8.1-1.6.1-2.3.1h-2.3c-.8.1-1.6.1-2.4.1-.8 0-1.6 0-2.4-.1-.4-.1-.6 0-1 .2-.5.1-1.1.1-1.7-.1-.2-.1-.5-.1-.8 0-.4.1-.6 0-.9 0-.2-.1-.4-.1-.7-.1s-.5.1-.8.1c-.5-.1-1-.1-1.6-.1-.2.1-.3 0-.5.1 0-.1 0-.3.1-.4H50.7c.4.1.6 0 .8 0 .9.1 1.7.2 2.4.1zm.1-1.6c1.3.1 2.4.1 3.6.1l-.2.2c-.2.1-.4 0-.6 0-.4-.1-.7-.1-1.1-.1-.3 0-.7 0-1.1.1-.2.1-.4.1-.6 0-.3-.1-.6-.1-.9-.1-.3 0-.5-.1-.7 0-.1 0-.1 0-.2.1-.1 0-.1 0-.2.1 0 .1-.1.2-.1.5-.4-.1-.7 0-1 0s-.6 0-.9-.2c.2-.1.3-.2.4-.2h.3c.1 0 .2-.1.3-.3-.1 0-.2-.1-.3-.1-.1-.1-.1-.1-.3-.1 1.3-.1 2.5-.1 3.6 0zm-5.9 1.6v.4c-.1-.1-.2-.1-.4-.1 0-.1 0-.3.1-.4.1 0 .1.1.3.1zm-2.8 2.5c.1.1 0 .1 0 0 .1.2 0 .2 0 .2-.1-.1-.1 0-.3 0 0-.1.1-.2 0-.3.1.2.3.1.3.1zm2-4.3c-.1.1 0 .1-.1.2h-.3v-.3c.1.1.3.1.4.1zm-1.8 1.7c-.1.1 0 .1-.1.2-.1 0-.2.1-.3 0s-.1-.2 0-.3c.2.1.3.1.4.1zm0-1.9v.3c-.1 0-.2.1-.4.1 0-.1.1-.2 0-.3.2 0 .4 0 .4-.1zm-2.6 4.5c.1.1 0 .1 0 0-.2 0-.4 0-.6.1-.4 0-.9 0-1.4-.1h2zm-2.3-2.9c.8 0 1.7.1 2.5.1 0 .1 0 .3-.1.4h-.6c-.6 0-1.1-.1-1.6-.2s-1.1 0-1.6-.1-1.1 0-1.5-.2l-.4.1.1-.3c1.2.2 2.3.2 3.2.2zm-12.2-2.4h.1c.1 0 .1 0 .2.1h.7v.1c-.2-.1-.4-.1-.6 0h-.6l-.1-.1c.1.1.2 0 .3-.1zm-1.5 0c.2.1.3.1.4.1l.1.1-.1.1c-.2-.1-.5-.1-.8 0v-.1c.1-.2.3-.2.4-.2zm-3.5 1c.1.1.2.1.4.2h-.6l.2-.2z"/>
        <path class="st0" d="M40.3 61.7c.1-.1.3-.2.4 0h-.4zM43.4 58.9c.1.1.1.1.2.1-.1.1-.1.2-.1.4-.1-.1-.1 0-.2-.1.1-.1.1-.2.1-.4zM71.8 58.6v.1h-.2v-.1zM72.5 58.5l.2-.1v.1s-.1.1-.2 0zM75.2 58.6h.1-.6zM79.3 58.4c0 .1 0 .1 0 0-.1 0 0 .1-.1.2h-.1l-.1-.1.1-.1h.2zM39.9 57.8c-.1 0-.2.1 0 0h-.2l-.1-.1.3.1zM42.2 57.9h-.4.4zM47.2 58.6c-.1.1-.1 0-.3 0 .1-.1.1-.1 0-.1l.3.1c.1 0 0 0 0 0zM48.1 58.2c-.1.2-.2.2-.3.2v-.1s-.1-.1 0-.1h.3zM47.7 61.2c.1-.1.2-.2.3-.1s0 .1.1.2c-.1-.1-.3-.1-.4-.1zM44 61.8c.1-.1.1 0 .2-.1v.3c-.1-.1-.1 0-.2-.1v-.1zM43.5 61.7c-.1.1-.1.1-.3.1.1-.1 0-.1 0-.1.2.1.2 0 .3 0zM44.6 58.2v-.1l.1.1zM45.6 58.6c-.1 0-.3 0-.4-.1l-.1-.1h.4c0 .2 0 .2.1.2zM44.5 59v.3-.3zM44.4 59l-.1.2-.1-.4c.1.2.1.2.2.2zM44.5 62l-.1-.2c.1-.1.1 0 .1 0s.1.1 0 .2zM47.2 59.1c0 .1 0 .3.1.4-.1 0-.1 0-.2-.1 0 0-.1-.1 0-.1-.1-.1-.1-.1 0-.1l.1-.1zM47.8 58.6h.3c-.2 0-.2-.1-.3 0zM43.5 58.1c.1 0 .1 0 0 0 .1.1.1.1 0 0zM43.2 58s-.1.1 0 0h-.3c.1 0 .2-.1.3 0zM68.1 57.7c.1-.1.1-.1 0 0 0 .1 0 .1 0 0zM81 58.6l-.1-.1zM37.4 57.8c.1-.1.1 0 0 0zM33.5 57.5l-.2-.1.2.1c.1 0 .1 0 0 0z"/>
      </g>
    </g>
  </g>
</svg>
